<svg width="211" height="38" viewBox="0 0 211 38" fill="none" xmlns="http://www.w3.org/2000/svg">
<path fill-rule="evenodd" clip-rule="evenodd" d="M0 0.320876C0.282343 0.282367 0.564687 0.20535 0.84703 0.20535C5.09501 0.192514 9.34298 0.154007 13.5781 0.231024C14.9642 0.256697 16.3887 0.436405 17.7363 0.808657C20.5725 1.57883 22.2281 3.78668 22.5874 6.71335C23.0238 10.2562 21.6634 12.9646 18.917 15.0569C17.9031 15.8271 16.7866 16.4818 15.67 17.2134C18.7373 21.4109 21.8174 25.6212 25.013 29.9727C24.32 29.9727 23.7938 29.9727 23.2676 29.9727C21.7147 29.9727 20.1618 29.9984 18.609 29.947C18.301 29.9342 17.9031 29.7545 17.7363 29.5106C14.9 25.4928 12.0894 21.4494 9.27881 17.406C9.16331 17.2391 9.03497 17.0209 9.02214 16.8283C8.99647 16.0582 9.00931 15.288 9.00931 14.6847C10.6905 14.0942 12.2948 13.6321 13.8091 12.9518C15.4005 12.233 16.5042 11.0007 16.8122 9.19075C17.2358 6.79036 16.0422 5.19867 13.6166 5.14732C10.9985 5.08314 8.38045 5.13448 5.69819 5.13448C5.69819 13.3882 5.69819 21.6034 5.69819 29.9085C3.74746 29.9085 1.87373 29.9085 0 29.9085C0 20.0374 0 10.1791 0 0.320876Z" fill="#0FC500"/>
<path fill-rule="evenodd" clip-rule="evenodd" d="M100.912 0.0256741C102.221 0.269564 103.53 0.462109 104.813 0.757344C105.583 0.924216 106.572 1.0269 107.008 1.54035C107.393 1.97679 107.149 2.96518 107.162 3.70969C107.175 4.59539 107.162 5.49393 107.162 6.3668C105.712 5.96887 104.339 5.50677 102.927 5.21153C100.488 4.71092 98.0244 4.65957 95.5603 5.09601C91.3636 5.85335 89.0022 8.2409 88.3349 12.4384C88.014 14.4665 88.1038 16.5075 88.5915 18.4971C89.5156 22.2453 91.9668 24.3889 95.7271 25.0564C99.3719 25.6982 102.914 25.2618 106.379 23.9782C106.597 23.9012 106.828 23.8113 107.111 23.7086C107.111 25.403 107.111 27.0332 107.111 28.6891C104.839 29.5748 102.465 29.9727 100.039 30.1011C97.0875 30.2551 94.1742 30.0626 91.3508 29.1512C87.09 27.7777 84.3564 24.9152 83.1885 20.6151C82.1875 16.9567 82.1105 13.2342 83.0473 9.53736C84.3179 4.51837 87.706 1.70723 92.6342 0.59047C93.6865 0.34658 94.7646 0.192544 95.8298 0C97.511 0.0256726 99.2051 0.0256741 100.912 0.0256741Z" fill="#0FC500"/>
<path fill-rule="evenodd" clip-rule="evenodd" d="M210.987 29.3053C207.419 30.1268 203.839 30.3193 200.297 29.2411C197.152 28.2912 195.15 26.1347 194.303 22.977C193.636 20.5124 193.572 17.9965 194.085 15.4934C194.765 12.1432 196.755 9.88398 200.027 8.88275C203.659 7.76599 207.342 7.93287 211 8.78006C211 10.2306 211 11.6939 211 13.1444C208.934 12.6566 206.842 12.4256 204.724 12.5668C201.696 12.7593 199.809 14.4024 199.411 17.252C199.283 18.1505 199.296 19.1004 199.385 20.0118C199.693 23.4519 201.785 25.4929 205.238 25.5057C207.163 25.5057 209.088 25.1463 211 24.9409C210.987 26.3914 210.987 27.8419 210.987 29.3053Z" fill="#0FC500"/>
<path fill-rule="evenodd" clip-rule="evenodd" d="M50.2699 9.04945C50.2699 6.10994 50.2699 3.20894 50.2699 0.256592C52.1179 0.256592 53.9018 0.256592 55.7499 0.256592C55.7627 0.513318 55.7884 0.770043 55.7884 1.02677C55.7884 9.9865 55.7884 18.9334 55.7884 27.8931C55.7884 28.3552 55.8012 28.689 55.198 28.8302C51.6559 29.6389 48.101 30.1266 44.4562 29.8956C40.1697 29.6389 37.2051 27.3925 36.05 23.4004C35.7292 22.2708 35.511 21.0642 35.4982 19.8961C35.4725 18.2787 35.511 16.6357 35.819 15.0568C36.5762 11.2573 39.0916 8.97243 42.9161 8.34345C45.3032 7.95836 47.6518 7.99687 49.9105 8.98527C50.0132 9.02378 50.1159 9.02378 50.2699 9.04945ZM50.257 19.2415C50.257 17.6113 50.2442 15.9939 50.2699 14.3637C50.2827 13.9272 50.1159 13.709 49.7437 13.5293C48.2165 12.7976 46.5994 12.5538 44.931 12.8105C42.7108 13.1442 41.4402 14.4279 41.0552 16.6357C40.7857 18.2402 40.8499 19.8319 41.2221 21.398C41.7739 23.7085 43.3396 25.159 45.5727 25.2103C46.8946 25.236 48.2165 25.005 49.5383 24.8766C50.0902 24.8252 50.2827 24.5429 50.2699 23.9652C50.2314 22.3864 50.257 20.8075 50.257 19.2415Z" fill="#0FC500"/>
<path fill-rule="evenodd" clip-rule="evenodd" d="M64.8106 20.9744C64.8619 22.81 65.5806 24.1963 67.2361 24.7611C68.4939 25.1976 69.8671 25.48 71.2018 25.4928C73.499 25.5056 75.7834 25.2489 78.1705 25.1077C78.1705 26.34 78.1833 27.6878 78.1577 29.0356C78.1577 29.164 77.9523 29.3822 77.8112 29.395C73.8327 30.0112 69.8542 30.4091 65.9143 29.2282C61.923 28.0344 59.9466 25.1334 59.4204 21.1285C59.1252 18.8693 59.2022 16.6229 59.8311 14.4151C60.7166 11.2574 62.7572 9.28058 65.9271 8.51041C68.3142 7.93278 70.7398 7.91994 73.1397 8.52324C76.6305 9.39611 78.6197 11.7451 79.1716 15.2109C79.4411 16.9182 79.2999 18.6896 79.3512 20.4225C79.3641 21.0129 78.979 20.9744 78.5684 20.9744C74.269 20.9744 69.9826 20.9744 65.6832 20.9744C65.4137 20.9744 65.1571 20.9744 64.8106 20.9744ZM64.8491 17.0337C67.9548 17.0337 71.0093 17.0337 74.0765 17.0337C73.9995 14.0428 72.6648 12.6052 69.9569 12.4897C66.8126 12.3613 65.1571 13.8118 64.8491 17.0337Z" fill="#0FC500"/>
<path fill-rule="evenodd" clip-rule="evenodd" d="M130.122 20.9744C125.322 20.9744 120.56 20.9744 115.722 20.9744C115.684 22.5789 116.3 23.747 117.609 24.5429C118.712 25.2104 119.957 25.5185 121.228 25.4928C123.807 25.4543 126.387 25.2746 129.044 25.159C129.044 26.3143 129.056 27.6493 129.018 28.9714C129.018 29.1254 128.761 29.3822 128.594 29.4078C125.065 29.9855 121.51 30.2807 117.968 29.549C113.296 28.5735 110.601 25.4029 110.242 20.615C110.088 18.5484 110.127 16.4945 110.691 14.4792C111.551 11.3985 113.489 9.38324 116.608 8.57456C119.097 7.91991 121.6 7.90707 124.09 8.54888C127.606 9.46026 129.698 11.989 130.186 15.7757C130.391 17.4829 130.417 19.1902 130.122 20.9744ZM115.773 17.0465C118.815 17.0465 121.844 17.0465 124.885 17.0465C125.181 14.3766 123.576 12.6308 120.83 12.4768C118.032 12.3228 115.876 13.6577 115.773 17.0465Z" fill="#0FC500"/>
<path fill-rule="evenodd" clip-rule="evenodd" d="M139.349 29.9213C137.488 29.9213 135.679 29.9213 133.843 29.9213C133.843 22.656 133.843 15.4292 133.843 8.12532C135.165 8.12532 136.474 8.11249 137.771 8.15099C137.925 8.15099 138.143 8.42056 138.181 8.60026C138.399 9.44746 138.566 10.2947 138.772 11.2317C139.234 10.8466 139.644 10.4744 140.068 10.1535C142.917 7.97129 146.1 7.57336 149.424 8.70296C152.337 9.69135 153.466 12.1046 153.569 14.9542C153.697 18.8051 153.62 22.6688 153.62 26.5326C153.62 27.6493 153.62 28.7661 153.62 29.9342C151.772 29.9342 149.963 29.9342 148.089 29.9342C148.089 29.6389 148.089 29.3822 148.089 29.1255C148.089 25.005 147.986 20.8718 148.127 16.7513C148.256 13.0545 145.984 12.2586 143.263 12.7592C141.903 13.0159 140.697 13.6578 139.657 14.5435C139.452 14.7232 139.349 15.1211 139.349 15.4292C139.336 19.9861 139.336 24.5558 139.336 29.1126C139.349 29.3437 139.349 29.6133 139.349 29.9213Z" fill="#0FC500"/>
<path fill-rule="evenodd" clip-rule="evenodd" d="M168.264 8.1126C168.264 9.65295 168.264 11.0393 168.264 12.5154C166.659 12.5154 165.094 12.5154 163.464 12.5154C163.438 12.7593 163.4 12.939 163.4 13.1316C163.4 16.2893 163.387 19.4342 163.4 22.5919C163.4 22.9513 163.451 23.3236 163.528 23.6702C163.772 24.8254 164.529 25.4801 165.71 25.5443C166.12 25.5699 166.531 25.5571 166.942 25.5571C167.352 25.5571 167.763 25.5571 168.225 25.5571C168.225 27.0204 168.225 28.4453 168.225 29.8958C168.135 29.9214 168.02 29.9728 167.917 29.9728C166.12 29.9599 164.324 30.0113 162.54 29.9086C159.999 29.7802 158.42 28.3041 157.997 25.8138C157.92 25.3389 157.855 24.8511 157.855 24.3633C157.843 17.958 157.855 11.5527 157.855 5.14742C157.855 5.00622 157.868 4.85218 157.894 4.58262C159.164 4.58262 160.435 4.56978 161.706 4.60829C161.834 4.60829 162.001 4.87786 162.052 5.05756C162.27 5.87909 162.476 6.70061 162.63 7.53496C162.719 8.00991 162.938 8.1511 163.412 8.1511C164.747 8.12543 166.082 8.13827 167.417 8.13827C167.699 8.1126 167.956 8.1126 168.264 8.1126Z" fill="#0FC500"/>
<path fill-rule="evenodd" clip-rule="evenodd" d="M176.914 29.9214C175.053 29.9214 173.243 29.9214 171.408 29.9214C171.408 22.656 171.408 15.442 171.408 8.12535C172.743 8.12535 174.064 8.11251 175.386 8.15102C175.515 8.15102 175.707 8.40774 175.746 8.57462C175.951 9.29345 176.131 10.0251 176.31 10.7183C177.247 10.1021 178.146 9.44748 179.095 8.90836C180.071 8.3564 181.162 8.12535 182.355 8.13818C182.355 9.61435 182.355 11.052 182.355 12.541C181.983 12.5924 181.585 12.5924 181.238 12.7079C180.391 12.9903 179.532 13.247 178.749 13.6578C177.478 14.3124 176.785 15.211 176.849 16.8669C177.016 20.936 176.901 25.0179 176.901 29.087C176.914 29.3437 176.914 29.6133 176.914 29.9214Z" fill="#0FC500"/>
<path fill-rule="evenodd" clip-rule="evenodd" d="M31.9047 29.9213C30.0695 29.9213 28.3113 29.9213 26.4889 29.9213C26.4889 22.6688 26.4889 15.442 26.4889 8.16382C28.2728 8.16382 30.0567 8.16382 31.9047 8.16382C31.9047 15.3906 31.9047 22.6303 31.9047 29.9213Z" fill="#0FC500"/>
<path fill-rule="evenodd" clip-rule="evenodd" d="M190.325 29.9213C188.49 29.9213 186.731 29.9213 184.909 29.9213C184.909 22.6688 184.909 15.442 184.909 8.16382C186.693 8.16382 188.477 8.16382 190.325 8.16382C190.325 15.3906 190.325 22.6303 190.325 29.9213Z" fill="#0FC500"/>
<path fill-rule="evenodd" clip-rule="evenodd" d="M26.4761 0.218262C28.3113 0.218262 30.0824 0.218262 31.9048 0.218262C31.9048 1.65593 31.9048 3.06792 31.9048 4.55693C30.1209 4.55693 28.3241 4.55693 26.4761 4.55693C26.4761 3.1321 26.4761 1.70727 26.4761 0.218262Z" fill="#0FC500"/>
<path fill-rule="evenodd" clip-rule="evenodd" d="M184.909 4.56962C184.909 3.09345 184.909 1.66862 184.909 0.230957C186.744 0.230957 188.528 0.230957 190.35 0.230957C190.35 1.68146 190.35 3.10628 190.35 4.56962C188.528 4.56962 186.744 4.56962 184.909 4.56962Z" fill="#0FC500"/>
<path d="M204.249 37.8933H203.762V34.1066H202.427V33.6702H205.597V34.1066H204.262V37.8933H204.249Z" fill="#0FC500"/>
<path d="M208.087 37.8927L206.649 34.1445H206.624C206.649 34.4398 206.662 34.7992 206.662 35.1971V37.8799H206.213V33.6567H206.957L208.292 37.1482H208.318L209.665 33.6567H210.397V37.8799H209.909V35.1586C209.909 34.8505 209.922 34.5039 209.948 34.1445H209.922L208.472 37.8799H208.087V37.8927Z" fill="#0FC500"/>
</svg>
