<svg width="51" height="63" viewBox="0 0 51 63" fill="none" xmlns="http://www.w3.org/2000/svg">
<path d="M48.702 13.2952C39.6159 13.779 30.3675 9.1021 26.6358 1.84477C26.149 1.0384 25.0132 1.0384 24.5265 1.84477C20.4702 9.26337 12.0331 14.1016 2.46027 13.2952C2.13576 13.2952 1.81126 13.2952 1.48676 13.6178C1.16226 13.779 1 14.1016 1 14.5854V30.0677C1 30.5515 1 31.1966 1 31.6805C1.64901 44.9049 11.0596 56.8392 25.0132 61.8387C25.1755 61.8387 25.3377 62 25.5 62C25.6623 62 25.8245 62 25.9868 61.8387C39.7781 56.8392 49.351 44.9049 50 31.6805C50 31.1966 50 30.5515 50 30.0677V14.4241C50 13.779 49.5132 13.2952 48.702 13.2952Z" stroke="#0376F9" stroke-width="2" stroke-miterlimit="10"/>
<path d="M12.76 37.5426L19.52 44.36L38.24 24.76" stroke="#0376F9" stroke-width="2" stroke-miterlimit="10"/>
</svg>
