<svg width="74" height="66" viewBox="0 0 74 66" fill="none" xmlns="http://www.w3.org/2000/svg">
<path d="M14.787 26.8376H2.93702C1.7976 26.8376 1 27.7492 1 28.7747V60.4506C1 61.59 1.91154 62.3876 2.93702 62.3876H14.787C15.9264 62.3876 16.724 61.4761 16.724 60.4506V28.7747C16.724 27.7492 15.8125 26.8376 14.787 26.8376Z" stroke="#0FC500" stroke-width="2" stroke-miterlimit="10"/>
<path d="M71.986 30.5978C71.986 27.4074 69.8211 24.1031 65.6053 24.1031H46.349C49.0836 19.2036 49.8812 12.367 48.0581 7.23964C46.6908 3.47954 43.9562 1.42858 40.538 1.2007C38.2591 1.08675 36.3221 2.79589 36.2082 4.96079C35.7524 9.97425 33.4735 18.7478 30.3971 21.9382C27.7764 24.5589 25.4976 25.6983 21.7375 27.5214C21.1678 27.7492 20.5981 28.0911 20.0284 28.4329C20.0284 28.5468 20.0284 28.6608 20.0284 28.8887V60.2228C20.4841 60.3367 20.9399 60.5646 21.3957 60.6786C27.5485 62.8435 32.9038 64.6665 41.1077 64.6665H56.6038C60.8197 64.6665 62.9846 61.3622 62.9846 58.1718C62.9846 57.2603 62.7567 56.2348 62.4149 55.3233C63.7822 55.0954 65.0355 54.4117 65.9471 53.3863C66.9726 52.2468 67.5423 50.6516 67.5423 48.9425C67.5423 48.031 67.3144 47.0055 66.9726 46.2079C70.3908 45.6382 72.1 42.6757 72.1 39.8271C72.1 38.118 71.5303 36.5228 70.3908 35.2694C71.3024 33.9021 71.986 32.3069 71.986 30.5978Z" stroke="#0FC500" stroke-width="2" stroke-miterlimit="10"/>
</svg>
