<svg width="63" height="63" viewBox="0 0 63 63" fill="none" xmlns="http://www.w3.org/2000/svg">
<path d="M34.5282 55.2598C33.0637 56.2013 31.39 56.7243 29.664 56.7766C21.1384 56.7766 12.0375 41.2946 12.0375 30.3631C12.0375 29.997 12.0375 29.6308 12.0898 29.2647C20.3015 29.2647 28.3041 27.0679 35.3651 22.9359C39.0264 24.8189 42.8969 26.1788 46.9243 27.0156C47.1335 28.114 47.2381 29.2124 47.2381 30.3631C47.2381 35.2797 45.3552 41.19 42.5308 46.1066C44.6229 45.5313 46.6628 44.7467 48.598 43.7529C50.5333 39.2025 51.6317 34.3905 51.6317 30.3108C51.6317 29.4216 51.5794 28.5324 51.4747 27.6956C50.0102 15.6133 39.0787 7.03548 27.0488 8.44769C16.4833 9.70299 8.3239 18.3855 7.69625 29.0032C7.64395 29.4216 7.64395 29.8924 7.64395 30.3108C7.64395 42.4453 17.4771 61.1179 29.664 61.1179C34.2667 61.1179 38.5033 58.4504 42.0077 54.4753C39.5494 54.946 37.0911 55.1552 34.6328 55.1552L34.5282 55.2598Z" stroke="#0376F9" stroke-width="2" stroke-miterlimit="10"/>
<path d="M1.0013 31.0953C1.0013 31.0953 0.321351 2.85114 30.0301 1.70045C30.0301 1.70045 59.8434 1.54354 57.5943 34.0244L57.4374 35.4366C57.4374 35.4366 63.5569 37.5287 61.6217 43.9098C61.6217 43.9098 60.0526 49.8202 51.9454 46.6819C51.9454 46.6819 45.669 52.0693 29.8208 51.2324" stroke="#0376F9" stroke-width="2" stroke-miterlimit="10"/>
</svg>
