<svg width="69" height="66" viewBox="0 0 69 66" fill="none" xmlns="http://www.w3.org/2000/svg">
<path d="M13.1544 40.8229C17.5352 40.8229 21.0865 37.2716 21.0865 32.8908C21.0865 28.51 17.5352 24.9586 13.1544 24.9586C8.77358 24.9586 5.22223 28.51 5.22223 32.8908C5.22223 37.2716 8.77358 40.8229 13.1544 40.8229Z" stroke="#0FC500" stroke-width="2" stroke-miterlimit="10"/>
<path d="M16.1374 42.9246H10.2391C5.96799 42.9246 2.37479 46.111 1.90021 50.3821L1.01886 57.2296C0.88327 58.1109 1.49344 58.9245 2.37479 59.1279C5.7646 59.8736 9.42559 60.2126 13.1544 60.2126C14.7137 60.2126 16.2052 60.1448 17.6289 60.0092L18.3747 53.9075C18.7815 50.7211 20.3408 48.0093 22.6459 46.111C21.1543 44.1449 18.7137 42.9246 16.1374 42.9246Z" stroke="#0FC500" stroke-width="2" stroke-miterlimit="10"/>
<path d="M55.2749 40.8229C59.6557 40.8229 63.2071 37.2716 63.2071 32.8908C63.2071 28.51 59.6557 24.9586 55.2749 24.9586C50.8941 24.9586 47.3428 28.51 47.3428 32.8908C47.3428 37.2716 50.8941 40.8229 55.2749 40.8229Z" stroke="#0FC500" stroke-width="2" stroke-miterlimit="10"/>
<path d="M66.597 50.3821C66.1224 46.111 62.4614 42.9246 58.258 42.9246H52.3597C49.7157 42.9246 47.3428 44.1449 45.7835 46.111C48.0886 48.0093 49.7157 50.7211 50.0547 53.9075L50.8004 60.0092C52.2242 60.1448 53.7835 60.2126 55.275 60.2126C59.0716 60.2126 62.6648 59.8058 66.0546 59.1279C66.9359 58.9245 67.4783 58.1109 67.4105 57.2296L66.597 50.3821Z" stroke="#0FC500" stroke-width="2" stroke-miterlimit="10"/>
<path d="M37.1299 46.9248H31.2317C26.9605 46.9248 23.3673 50.1112 22.8927 54.3146L22.0792 61.162C21.9436 62.0434 22.5537 62.9247 23.4351 63.0603C26.8249 63.8061 30.4859 64.145 34.2147 64.145C38.0113 64.145 41.6045 63.7383 44.9943 63.0603C45.8756 62.8569 46.418 62.0434 46.3502 61.162L45.5367 54.3146C44.9943 50.1112 41.4011 46.9248 37.1299 46.9248Z" stroke="#0FC500" stroke-width="2" stroke-miterlimit="10"/>
<path d="M34.2147 44.8229C38.5955 44.8229 42.1468 41.2716 42.1468 36.8908C42.1468 32.51 38.5955 28.9586 34.2147 28.9586C29.8339 28.9586 26.2825 32.51 26.2825 36.8908C26.2825 41.2716 29.8339 44.8229 34.2147 44.8229Z" stroke="#0FC500" stroke-width="2" stroke-miterlimit="10"/>
<path d="M26.8249 15.0847C27.2995 15.4914 27.5029 16.1694 27.3673 16.7796L26.0792 22.0677C25.7402 23.5592 27.3673 24.7117 28.6554 23.8982L33.3334 21.0507C33.8757 20.7118 34.5537 20.7118 35.0961 21.0507L39.774 23.8982C41.0621 24.7117 42.6892 23.4914 42.3502 22.0677L41.0621 16.7796C40.9265 16.1694 41.1299 15.4914 41.6045 15.0847L45.7401 11.5593C46.8926 10.5423 46.2824 8.64402 44.7909 8.57623L39.3672 8.10165C38.757 8.03386 38.1469 7.62708 37.9435 7.08471L35.8418 2.06779C35.2316 0.64407 33.2656 0.64407 32.6554 2.06779L30.5537 7.01691C30.2825 7.62708 29.7402 8.03386 29.13 8.03386L23.7063 8.50843C22.2148 8.64402 21.6046 10.5423 22.7571 11.4915L26.8249 15.0847Z" stroke="#0FC500" stroke-width="2" stroke-miterlimit="10"/>
</svg>
