<svg width="121" height="65" viewBox="0 0 121 65" fill="none" xmlns="http://www.w3.org/2000/svg">
<path d="M80.7373 25.6199L85.8201 23.2373C85.8201 23.2373 85.8202 23.2373 85.979 23.2373C86.932 22.7608 87.4085 21.8078 87.4085 20.6959C87.4085 19.1075 86.1378 17.8368 84.5494 17.8368L79.4666 18.3133C78.5135 18.4722 77.5605 18.9487 77.2428 19.9017L76.4486 21.8078C75.9721 20.8548 75.6544 19.9017 75.3368 19.1075C67.8713 1.79405 66.9183 1.31753 44.2043 1.15869C21.4903 1.15869 20.5372 1.63521 13.0718 19.1075C12.7541 19.9017 12.2776 20.8548 11.9599 21.8078L11.1657 19.9017C10.6892 18.9487 9.895 18.3133 8.94196 18.3133L3.85911 17.8368C2.27071 17.8368 1 19.1075 1 20.6959C1 21.8078 1.63536 22.7608 2.42955 23.2373C2.42955 23.2373 2.42955 23.2373 2.58839 23.2373L7.67125 25.6199C5.12982 26.8906 3.54143 28.6379 2.90607 30.544C0.682321 37.374 0.682321 44.5218 2.90607 51.0342C3.38259 52.4638 4.33562 53.7345 5.60634 54.6875V61.3588C5.60634 62.6295 6.55937 63.5825 7.83009 63.5825H18.9488C20.2195 63.5825 21.1726 62.6295 21.1726 61.3588V57.3878C36.2623 57.3878 51.352 57.3878 66.4418 57.3878V61.3588C66.4418 62.6295 67.3948 63.5825 68.6655 63.5825H79.7843C81.055 63.5825 82.008 62.6295 82.008 61.3588V54.6875C83.2787 53.7345 84.2318 52.4638 84.7083 51.0342C86.932 44.363 86.932 37.2152 84.7083 30.544C84.2318 28.6379 82.6434 26.8906 80.7373 25.6199ZM21.9668 42.6157C21.6491 42.6157 17.5193 42.7746 13.866 42.7746C11.9599 42.7746 10.0538 42.7746 8.94196 42.6157C7.98893 42.4569 7.19473 42.1392 6.71821 41.345C5.76518 39.7566 6.87705 37.2152 7.35357 35.9445C7.67125 35.1503 8.46544 33.2442 10.848 32.9265C15.772 31.9735 20.2195 33.4031 23.0787 34.6738C24.9847 35.468 26.0966 37.0564 26.0966 38.9624C25.9378 41.0273 24.1905 42.6157 21.9668 42.6157ZM15.1367 23.3962C15.6132 22.2843 16.0897 21.3313 16.4074 20.3782C19.743 12.4363 21.4903 8.62414 24.5082 6.71807C27.685 4.812 33.4032 4.812 43.7278 4.812C54.0523 4.812 59.7705 4.812 62.9473 6.71807C65.9652 8.4653 67.7125 12.4363 71.0481 20.3782C71.5246 21.3313 71.8423 22.2843 72.3188 23.3962C53.4169 22.4432 34.1974 22.4432 15.1367 23.3962ZM61.6766 38.8036C61.6766 36.8975 62.7885 35.3091 64.6945 34.5149C67.5536 33.2442 72.0011 31.8147 76.9252 32.7677C79.3077 33.2442 80.1019 35.1503 80.4196 35.7856C81.055 37.0564 82.008 39.5978 81.055 41.1862C80.5785 41.8215 79.9431 42.2981 78.8312 42.4569C77.7194 42.6157 75.8133 42.6157 73.9072 42.6157C70.0951 42.6157 65.9652 42.4569 65.8064 42.4569C63.4238 42.6157 61.6766 41.0273 61.6766 38.8036Z" stroke="#0FC500" stroke-width="2" stroke-miterlimit="10"/>
<path d="M110.693 25.6201L115.776 23.2375C115.776 23.2375 115.776 23.2375 115.935 23.2375C116.888 22.761 117.364 21.8079 117.364 20.6961C117.364 19.1077 116.094 17.837 114.505 17.837L109.422 18.3135C108.469 18.4723 107.516 18.9488 107.199 19.9019L106.404 21.8079C105.928 20.8549 105.61 19.9019 105.292 19.1077C97.5094 1.47652 96.5563 1 73.8423 1C71.4597 1 69.236 1 67.3299 1C69.236 1.95304 70.8244 3.22375 72.2539 4.97098C72.7304 4.97098 73.2069 4.97098 73.8423 4.97098C84.1669 4.97098 89.8851 4.97098 93.0618 6.87705C96.0798 8.62428 97.827 12.5953 101.163 20.5372C101.639 21.4903 101.957 22.4433 102.433 23.5552C98.6212 23.3963 94.6502 23.2375 90.8381 23.0787C90.3616 23.8729 89.7262 24.667 88.932 25.1436L88.6143 25.3024L86.7083 26.2554C87.8202 27.3673 88.4555 28.638 88.932 29.9087C91.3146 37.2153 91.3146 44.8396 88.932 51.8286C88.4555 53.2581 87.5025 54.6877 86.2318 55.7995V57.3879H96.3975V61.3589C96.3975 62.6296 97.3505 63.5827 98.6212 63.5827H109.74C111.011 63.5827 111.964 62.6296 111.964 61.3589V54.6877C113.234 53.7346 114.187 52.4639 114.664 51.0344C116.888 44.3631 116.888 37.2153 114.664 30.5441C114.187 28.638 112.599 26.8908 110.693 25.6201ZM111.011 41.3452C110.534 41.9805 109.899 42.457 108.787 42.6159C107.675 42.7747 105.769 42.7747 103.863 42.7747C100.051 42.7747 95.921 42.6159 95.7621 42.6159C93.3795 42.6159 91.7911 41.0275 91.7911 38.8037C91.7911 36.8977 92.903 35.3093 94.8091 34.5151C97.6682 33.2444 102.116 31.8148 107.04 32.7678C109.422 33.2444 110.216 35.1504 110.534 35.7858C110.852 37.3742 111.964 39.7568 111.011 41.3452Z" stroke="#0FC500" stroke-width="2" stroke-miterlimit="10"/>
</svg>
