<svg width="63" height="64" viewBox="0 0 63 64" fill="none" xmlns="http://www.w3.org/2000/svg">
<path d="M31.5175 1.03418C14.6506 1.03418 1.03508 14.6497 1.03508 31.5166C1.03508 48.3836 14.6506 61.9991 31.5175 61.9991C48.3845 61.9991 62 48.3836 62 31.5166C62 14.6497 48.3845 1.03418 31.5175 1.03418Z" stroke="#0376F9" stroke-width="2" stroke-miterlimit="10"/>
<path d="M60.4759 39.442C60.2726 39.1372 59.8662 39.0356 59.4598 39.1372C58.4437 39.3404 49.6038 41.3725 46.8604 44.2176C46.1491 44.9288 45.5395 45.6401 45.0314 46.453C43.7105 48.1803 42.9993 49.298 39.5446 49.298C37.4108 49.1964 35.1754 48.7899 33.1433 47.9771C30.9079 47.0626 28.5709 46.6562 26.1323 46.5546C20.4422 46.5546 14.9554 54.5816 14.3457 55.4961C14.0409 56.0041 14.1425 56.6138 14.6506 56.9186C28.6725 66.2666 47.5716 62.5071 56.9196 48.4851C58.5453 46.0465 59.8662 43.3031 60.6791 40.4581C60.7807 40.0516 60.6791 39.7468 60.4759 39.442Z" stroke="#0376F9" stroke-width="2" stroke-miterlimit="10"/>
<path d="M19.1213 21.0509C21.3567 20.0348 23.2873 18.7139 25.1162 17.0882C29.2822 12.9222 27.25 2.86301 27.1484 2.45658C27.0468 2.05014 26.8436 1.74532 26.4371 1.64371H26.3355C26.1323 1.5421 25.9291 1.5421 25.8275 1.64371C9.26535 4.69196 -1.60673 20.6444 1.54312 37.2066C2.15277 40.2548 3.16885 43.0999 4.59137 45.8433C4.79458 46.1481 5.09941 46.3513 5.50584 46.3513H5.60745H6.01388C6.31871 46.3513 6.62353 46.1481 6.72514 45.8433C7.23318 45.0304 12.1104 37.3082 12.1104 33.3455C12.1104 32.431 12.0088 31.4149 11.8056 30.5004C11.5007 28.3667 11.2975 27.0458 13.6345 24.6072C15.2602 23.1847 17.0892 21.9654 19.1213 21.0509Z" stroke="#0376F9" stroke-width="2" stroke-miterlimit="10"/>
<path d="M44.4218 34.5648L43.8121 33.9551C43.6089 33.7519 43.3041 33.6503 42.9992 33.6503L39.1381 34.0567L35.7851 30.7037L40.459 26.0297C40.8655 25.6233 40.8655 25.0136 40.459 24.6072L38.5285 22.6766C38.2237 22.3718 37.8172 22.2702 37.5124 22.4734L30.1966 25.1152L29.3837 24.3023C27.4532 22.3718 25.0146 22.067 23.5921 23.5911C22.1696 25.1152 22.3728 27.4522 24.3033 29.2812L25.1162 30.094L22.4744 37.4098C22.3728 37.8162 22.4744 38.2227 22.6776 38.4259L24.6082 40.3564C24.8114 40.5597 25.0146 40.6613 25.3194 40.6613C25.6242 40.6613 25.8275 40.5597 26.0307 40.3564L30.7047 35.6825L34.0577 39.0355L33.6513 42.8967C33.6513 43.2015 33.7529 43.5063 33.9561 43.7095L34.5658 44.3192C34.769 44.5224 34.9722 44.624 35.277 44.624C35.5818 44.624 35.7851 44.5224 35.9883 44.3192L39.1381 41.1693L40.3574 41.5757C40.459 41.5757 40.5606 41.6774 40.6623 41.6774C41.2719 41.6774 41.6783 41.2709 41.6783 40.6613C41.6783 40.5597 41.6783 40.4581 41.5767 40.3564L41.1703 39.1371L44.3202 35.9873C44.8282 35.5809 44.8282 34.9712 44.4218 34.5648Z" stroke="#0376F9" stroke-width="2" stroke-miterlimit="10"/>
</svg>
