<svg width="1239" height="223" viewBox="0 0 1239 223" fill="none" xmlns="http://www.w3.org/2000/svg">
<g opacity="0.07" clip-path="url(#clip0_0_245)">
<path d="M505.512 78.7258C504.836 78.7258 504.273 79.2889 504.273 79.9647V167.588C504.273 168.264 504.836 168.827 505.512 168.827C506.188 168.827 506.751 168.264 506.751 167.588V79.852C506.751 79.1763 506.188 78.7258 505.512 78.7258Z" fill="#D0D2D3"/>
<path d="M511.932 78.7258C511.256 78.7258 510.693 79.2889 510.693 79.9647V167.588C510.693 168.264 511.256 168.827 511.932 168.827C512.608 168.827 513.171 168.264 513.171 167.588V79.852C513.171 79.1763 512.608 78.7258 511.932 78.7258Z" fill="#D0D2D3"/>
<path d="M502.245 204.417C502.921 204.417 503.484 203.854 503.484 203.178V180.427C503.484 179.752 502.921 179.188 502.245 179.188C501.57 179.188 501.007 179.752 501.007 180.427V203.178C501.007 203.854 501.57 204.417 502.245 204.417Z" fill="#D0D2D3"/>
<path d="M508.778 204.417C509.454 204.417 510.017 203.854 510.017 203.178V180.427C510.017 179.752 509.454 179.188 508.778 179.188C508.103 179.188 507.539 179.752 507.539 180.427V203.178C507.539 203.854 508.103 204.417 508.778 204.417Z" fill="#D0D2D3"/>
<path d="M515.199 204.417C515.875 204.417 516.438 203.854 516.438 203.178V180.427C516.438 179.752 515.875 179.188 515.199 179.188C514.523 179.188 513.96 179.752 513.96 180.427V203.178C513.96 203.854 514.523 204.417 515.199 204.417Z" fill="#D0D2D3"/>
<path d="M524.998 175.246C525.674 175.246 526.237 174.683 526.237 174.008V96.0702C526.237 95.3944 525.674 94.8313 524.998 94.8313C524.322 94.8313 523.759 95.3944 523.759 96.0702V174.008C523.759 174.683 524.322 175.246 524.998 175.246Z" fill="#D0D2D3"/>
<path d="M492.446 175.246C493.122 175.246 493.685 174.683 493.685 174.008V96.0702C493.685 95.3944 493.122 94.8313 492.446 94.8313C491.77 94.8313 491.207 95.3944 491.207 96.0702V174.008C491.32 174.683 491.883 175.246 492.446 175.246Z" fill="#D0D2D3"/>
<path d="M691.812 221.423H555.41V209.71C555.41 209.034 554.847 208.471 554.171 208.471H548.877V190.226C548.877 189.55 548.314 188.987 547.638 188.987H539.078V180.427V170.741C539.078 170.066 538.514 169.503 537.839 169.503H532.545V89.5379C532.545 88.8621 531.982 88.299 531.306 88.299H529.391V66.9C529.391 66.2242 528.828 65.6611 528.152 65.6611H522.858V57.1015C522.858 56.4257 522.295 55.8626 521.619 55.8626H518.015V50.6818C518.015 50.0061 517.451 49.4429 516.776 49.4429H513.171V34.4636C513.171 33.7879 512.608 33.2247 511.932 33.2247H509.905V18.2455C509.905 17.5697 509.342 17.0066 508.666 17.0066C507.99 17.0066 507.427 17.5697 507.427 18.2455V33.2247H505.399C504.724 33.2247 504.16 33.7879 504.16 34.4636V49.5555H500.556C499.88 49.5555 499.317 50.1187 499.317 50.7944V56.0879H495.713C495.037 56.0879 494.474 56.651 494.474 57.3268V65.8864H489.18C488.504 65.8864 487.941 66.4495 487.941 67.1252V88.6369H485.913C485.237 88.6369 484.674 89.2 484.674 89.8758V169.84H479.38C478.705 169.84 478.141 170.404 478.141 171.079V180.765V189.325H469.581C468.905 189.325 468.342 189.888 468.342 190.564V208.809H463.048C462.372 208.809 461.809 209.372 461.809 210.048V221.761H306.821C306.146 221.761 305.582 222.324 305.582 223C305.582 223.676 306.146 224.239 306.821 224.239H463.386H554.171H691.812C692.488 224.239 693.051 223.676 693.051 223C693.051 221.986 692.488 221.423 691.812 221.423ZM546.399 208.471H539.078V191.465H546.399V208.471ZM522.971 208.471V181.666H531.531H536.825V190.226V208.471H522.971ZM536.712 179.301H532.657V171.98H536.712V179.301ZM517.226 72.1934H500.218V68.1389H517.226V72.1934ZM500.218 89.6505V74.6712H517.226V89.6505V172.769H500.218V89.6505ZM527.025 88.4116H519.704V73.4323V68.1389H527.025V88.4116ZM506.751 35.7025H510.806V49.5555H506.751V35.7025ZM501.795 51.9207H515.537V55.9752H501.795V51.9207ZM496.952 58.3404H500.443H500.556H500.669H516.663H516.776H516.888H520.38V65.6611H518.353H516.325V62.0571C516.325 61.3813 515.762 60.8182 515.086 60.8182C514.41 60.8182 513.847 61.3813 513.847 62.0571V65.6611H509.68V62.0571C509.68 61.3813 509.116 60.8182 508.441 60.8182C507.765 60.8182 507.201 61.3813 507.201 62.0571V65.6611H503.485V62.0571C503.485 61.3813 502.921 60.8182 502.245 60.8182C501.57 60.8182 501.007 61.3813 501.007 62.0571V65.6611H498.641H496.952V58.3404ZM490.419 68.1389H497.74V73.4323V88.4116H490.419V68.1389ZM487.265 90.8894H497.853V174.008C497.853 174.683 498.416 175.246 499.092 175.246H518.578C519.254 175.246 519.817 174.683 519.817 174.008V90.8894H530.405V170.854V179.414H521.844C521.168 179.414 520.605 179.977 520.605 180.652V208.584H497.064V180.652C497.064 179.977 496.501 179.414 495.825 179.414H487.265V170.854V90.8894ZM480.732 208.471V190.226V181.666H486.026H494.586V208.471H480.732ZM480.732 171.98H484.787V179.301H480.732V171.98ZM471.045 191.465H478.367V208.471H471.045V191.465ZM464.512 221.423V210.836H469.806H479.493H495.713H521.619H537.839H547.525H552.819V221.423H464.512Z" fill="#D0D2D3"/>
<path d="M358.859 69.8283C359.986 69.8283 361.112 69.4904 362.126 68.9273C365.28 67.1252 366.406 63.0707 364.491 59.9172C363.365 57.8899 361.112 56.651 358.747 56.651C357.62 56.651 356.494 56.9889 355.48 57.552C352.327 59.354 351.2 63.4086 353.002 66.5621C354.241 68.5894 356.494 69.8283 358.859 69.8283ZM357.057 60.1424C357.62 59.8045 358.184 59.6919 358.859 59.6919C360.098 59.6919 361.337 60.3677 361.901 61.4939C362.914 63.1833 362.351 65.4359 360.549 66.3369C358.859 67.2379 356.607 66.6747 355.706 64.9853C354.692 63.296 355.368 61.0434 357.057 60.1424Z" fill="#D0D2D3"/>
<path d="M188.215 168.264C189.342 168.264 190.468 167.926 191.482 167.363C194.636 165.561 195.762 161.506 193.96 158.353C192.833 156.325 190.581 155.086 188.215 155.086C187.089 155.086 185.963 155.424 184.949 155.987C183.372 156.888 182.358 158.353 181.908 160.042C181.457 161.731 181.682 163.533 182.584 165.11C183.71 167.025 185.85 168.264 188.215 168.264ZM184.836 160.718C185.062 159.817 185.625 159.028 186.526 158.578C187.089 158.24 187.652 158.127 188.328 158.127C189.567 158.127 190.806 158.803 191.369 159.929C192.383 161.619 191.82 163.871 190.018 164.772C188.328 165.673 186.075 165.11 185.174 163.421C184.724 162.632 184.611 161.619 184.836 160.718Z" fill="#D0D2D3"/>
<path d="M336.783 43.5863C338.698 43.5863 340.612 42.6853 341.851 41.2212C342.978 39.8697 343.541 38.1803 343.428 36.3783C343.316 34.5762 342.415 32.9995 341.063 31.8732C339.824 30.8596 338.36 30.2964 336.783 30.2964C334.868 30.2964 332.953 31.1975 331.714 32.6616C330.588 34.0131 330.025 35.7025 330.25 37.5045C330.362 39.3066 331.263 40.8833 332.615 42.0096C333.741 43.0232 335.318 43.5863 336.783 43.5863ZM334.079 34.6889C334.755 33.9005 335.769 33.45 336.783 33.45C337.571 33.45 338.472 33.7879 339.035 34.2384C339.711 34.8015 340.162 35.7025 340.274 36.6035C340.387 37.5045 340.049 38.5182 339.486 39.1939C338.247 40.6581 335.882 40.8833 334.417 39.6444C333.741 39.0813 333.291 38.1803 333.178 37.2793C333.178 36.3783 333.516 35.4773 334.079 34.6889Z" fill="#D0D2D3"/>
<path d="M215.361 192.14C217.726 189.325 217.388 185.158 214.572 182.792C213.333 181.779 211.869 181.216 210.292 181.216C208.377 181.216 206.462 182.117 205.223 183.581C202.858 186.396 203.196 190.564 206.012 192.929C207.251 193.942 208.715 194.506 210.292 194.506C212.207 194.506 214.009 193.605 215.361 192.14ZM207.476 185.608C208.152 184.82 209.166 184.369 210.179 184.369C210.968 184.369 211.869 184.707 212.432 185.158C213.896 186.396 214.122 188.649 212.883 190.226C211.644 191.69 209.278 191.915 207.814 190.676C206.462 189.325 206.237 187.072 207.476 185.608Z" fill="#D0D2D3"/>
<path d="M304.907 26.1293C305.582 26.3545 306.371 26.5798 307.159 26.5798C309.975 26.5798 312.453 24.7778 313.354 22.1874C314.593 18.8086 312.791 14.9793 309.412 13.7404C308.736 13.5151 307.948 13.2899 307.159 13.2899C304.343 13.2899 301.865 15.0919 300.964 17.6823C300.401 19.3717 300.401 21.1737 301.19 22.7505C301.978 24.3273 303.33 25.5661 304.907 26.1293ZM303.893 18.6959C304.343 17.3444 305.695 16.3308 307.272 16.3308C307.722 16.3308 308.06 16.4434 308.511 16.556C310.313 17.2318 311.327 19.2591 310.651 21.1737C309.975 22.9757 307.948 23.9894 306.033 23.3136C305.132 22.9757 304.456 22.3 304.006 21.5116C303.555 20.498 303.555 19.597 303.893 18.6959Z" fill="#D0D2D3"/>
<path d="M239.803 211.625C242.619 211.625 245.097 209.823 245.998 207.232C247.237 203.741 245.435 200.024 242.056 198.785C241.267 198.56 240.591 198.335 239.803 198.335C236.987 198.335 234.509 200.137 233.608 202.727C232.369 206.106 234.171 209.935 237.55 211.174C238.339 211.399 239.127 211.625 239.803 211.625ZM236.536 203.741C237.1 202.389 238.339 201.376 239.915 201.376C240.366 201.376 240.704 201.488 241.154 201.601C242.957 202.277 243.97 204.304 243.295 206.106C242.619 207.908 240.479 208.922 238.676 208.246C236.762 207.683 235.861 205.543 236.536 203.741Z" fill="#D0D2D3"/>
<path d="M273.481 20.6106C277.085 20.6106 280.127 17.6823 280.127 13.9657C280.127 10.3616 277.198 7.32071 273.481 7.32071C271.679 7.32071 270.102 7.99647 268.75 9.23536C267.511 10.4742 266.836 12.1636 266.836 13.9657C266.836 15.7677 267.511 17.3444 268.75 18.696C270.102 19.9349 271.792 20.6106 273.481 20.6106ZM271.003 11.4879C271.679 10.8121 272.58 10.4742 273.481 10.4742C275.396 10.4742 277.085 12.051 277.085 14.0783C277.085 16.1056 275.509 17.6823 273.481 17.6823V19.2591V17.6823C272.58 17.6823 271.679 17.3444 271.003 16.6687C270.327 15.9929 269.989 15.0919 269.989 14.1909C269.989 13.0646 270.327 12.1636 271.003 11.4879Z" fill="#D0D2D3"/>
<path d="M273.481 204.304C269.877 204.304 266.836 207.232 266.836 210.949C266.836 214.553 269.764 217.594 273.481 217.594C277.085 217.594 280.127 214.666 280.127 210.949C280.127 207.232 277.198 204.304 273.481 204.304ZM273.481 214.44C271.566 214.44 269.877 212.864 269.877 210.836C269.877 208.922 271.454 207.232 273.481 207.232C275.396 207.232 277.085 208.809 277.085 210.836C277.085 212.864 275.509 214.44 273.481 214.44Z" fill="#D0D2D3"/>
<path d="M239.915 26.5798C240.704 26.5798 241.492 26.4672 242.168 26.1293C245.547 24.8904 247.349 21.0611 246.11 17.6823C245.209 15.0919 242.619 13.2899 239.915 13.2899C239.127 13.2899 238.339 13.4025 237.663 13.7404C235.973 14.3035 234.622 15.5424 233.946 17.1192C233.157 18.6959 233.157 20.498 233.72 22.1874C234.622 24.7778 237.1 26.5798 239.915 26.5798ZM236.649 18.3581C237.1 17.4571 237.775 16.8939 238.676 16.556C239.014 16.4434 239.465 16.3308 239.915 16.3308C241.38 16.3308 242.731 17.2318 243.295 18.6959C243.97 20.498 242.957 22.6379 241.154 23.3136C239.352 23.9894 237.212 22.9757 236.649 21.1737C236.198 20.2727 236.198 19.2591 236.649 18.3581Z" fill="#D0D2D3"/>
<path d="M307.159 198.335C306.371 198.335 305.582 198.447 304.907 198.785C303.217 199.348 301.865 200.587 301.19 202.164C300.401 203.741 300.401 205.543 300.964 207.232C301.865 209.823 304.456 211.625 307.159 211.625C307.948 211.625 308.736 211.512 309.412 211.174C312.904 209.935 314.593 206.106 313.354 202.727C312.453 200.024 309.975 198.335 307.159 198.335ZM310.426 206.444C309.975 207.345 309.299 208.021 308.398 208.246C306.596 208.922 304.456 207.908 303.78 206.106C303.442 205.205 303.555 204.191 303.893 203.403C304.343 202.502 305.019 201.939 305.92 201.601C306.258 201.488 306.709 201.376 307.159 201.376C308.624 201.376 309.975 202.277 310.538 203.741C310.876 204.642 310.876 205.543 310.426 206.444Z" fill="#D0D2D3"/>
<path d="M210.292 43.5863C211.869 43.5863 213.333 43.0232 214.572 42.0096C215.924 40.8833 216.712 39.3066 216.938 37.5045C217.05 35.7025 216.6 34.0131 215.361 32.6616C214.122 31.1975 212.207 30.2964 210.292 30.2964C208.715 30.2964 207.251 30.8596 206.012 31.8732C203.196 34.2384 202.858 38.4055 205.223 41.2212C206.462 42.798 208.265 43.5863 210.292 43.5863ZM207.927 34.2384C208.603 33.6752 209.391 33.45 210.179 33.45C211.193 33.45 212.207 33.9005 212.883 34.6889C213.446 35.4773 213.784 36.3783 213.671 37.2793C213.558 38.1803 213.108 39.0813 212.432 39.6444C210.968 40.8833 208.603 40.6581 207.364 39.1939C206.237 37.7298 206.462 35.4773 207.927 34.2384Z" fill="#D0D2D3"/>
<path d="M332.615 182.792C331.263 183.919 330.475 185.495 330.25 187.297C330.137 189.099 330.588 190.789 331.714 192.14C332.953 193.605 334.868 194.506 336.783 194.506C338.36 194.506 339.824 193.942 341.063 192.929C342.415 191.803 343.203 190.226 343.428 188.424C343.541 186.622 342.978 184.932 341.851 183.581C340.612 182.117 338.698 181.216 336.783 181.216C335.318 181.216 333.741 181.779 332.615 182.792ZM340.387 188.198C340.274 189.099 339.824 190.001 339.148 190.676C337.684 191.915 335.318 191.69 334.079 190.226C333.516 189.55 333.178 188.536 333.291 187.635C333.404 186.734 333.854 185.833 334.53 185.27C335.206 184.707 335.994 184.482 336.783 184.482C337.796 184.482 338.81 184.932 339.486 185.721C340.162 186.284 340.5 187.185 340.387 188.198Z" fill="#D0D2D3"/>
<path d="M184.949 68.9273C185.963 69.4904 187.089 69.8283 188.215 69.8283C190.581 69.8283 192.833 68.5894 193.96 66.5621C194.861 64.9853 195.086 63.296 194.636 61.6066C194.185 59.9172 193.059 58.453 191.594 57.552C190.581 56.9889 189.454 56.651 188.328 56.651C185.963 56.651 183.71 57.8899 182.584 59.9172C180.669 63.0707 181.795 67.1252 184.949 68.9273ZM185.174 61.3813C185.85 60.255 186.976 59.5793 188.328 59.5793C189.004 59.5793 189.567 59.6919 190.13 60.0298C190.919 60.4803 191.594 61.2687 191.82 62.1697C192.045 63.0707 191.932 64.0843 191.482 64.8727C190.581 66.4495 188.328 67.1252 186.638 66.2242C184.724 65.3232 184.16 63.0707 185.174 61.3813Z" fill="#D0D2D3"/>
<path d="M362.126 155.875C361.112 155.312 359.986 154.974 358.859 154.974C356.494 154.974 354.241 156.213 353.115 158.24C352.214 159.704 351.989 161.506 352.439 163.195C352.89 164.885 354.016 166.349 355.48 167.25C356.494 167.813 357.62 168.151 358.747 168.151C361.112 168.151 363.365 166.912 364.491 164.885C365.392 163.308 365.618 161.619 365.167 159.817C364.717 158.24 363.59 156.776 362.126 155.875ZM361.901 163.421C360.999 165.11 358.634 165.673 357.057 164.772C356.269 164.322 355.593 163.533 355.368 162.632C355.142 161.731 355.255 160.718 355.706 159.929C356.381 158.803 357.508 158.127 358.747 158.127C359.31 158.127 359.986 158.24 360.549 158.578C361.337 159.028 362.013 159.817 362.239 160.718C362.464 161.619 362.351 162.632 361.901 163.421Z" fill="#D0D2D3"/>
<path d="M175.375 101.814C175.713 101.927 176.163 101.927 176.501 101.927C179.768 101.927 182.471 99.6742 183.034 96.4081C183.372 94.7187 182.921 92.9167 181.908 91.4525C180.894 89.9884 179.317 88.9747 177.628 88.7495C174.023 88.0737 170.644 90.5515 169.968 94.1555C169.63 95.8449 170.081 97.647 171.095 99.1111C172.108 100.575 173.685 101.589 175.375 101.814ZM173.009 94.7187C173.347 93.0293 174.812 91.7904 176.501 91.7904C176.726 91.7904 176.952 91.7904 177.064 91.7904C177.965 92.0156 178.867 92.4662 179.43 93.2545C179.993 94.0429 180.218 94.9439 179.993 95.9576C179.655 97.8722 177.853 99.2237 175.825 98.8859C174.924 98.7732 174.023 98.2101 173.573 97.4217C173.122 96.6333 172.897 95.6197 173.009 94.7187Z" fill="#D0D2D3"/>
<path d="M369.335 136.053C369.673 136.165 370.123 136.165 370.461 136.165C373.727 136.165 376.431 133.913 376.994 130.646C377.332 128.957 376.881 127.155 375.868 125.691C374.854 124.227 373.277 123.326 371.587 122.988C367.983 122.312 364.604 124.79 363.928 128.394C363.59 130.083 364.041 131.885 365.054 133.35C366.068 134.814 367.645 135.715 369.335 136.053ZM366.969 128.957C367.307 127.268 368.771 126.029 370.461 126.029C370.686 126.029 370.912 126.029 371.024 126.141C371.925 126.254 372.826 126.817 373.39 127.606C373.953 128.394 374.178 129.295 373.953 130.309C373.615 132.223 371.813 133.575 369.785 133.237C368.884 133.124 367.983 132.561 367.42 131.773C367.082 130.759 366.857 129.858 366.969 128.957Z" fill="#D0D2D3"/>
<path d="M183.034 128.394C182.471 125.24 179.768 122.875 176.501 122.875C176.163 122.875 175.713 122.875 175.375 122.988C171.77 123.664 169.405 127.042 169.968 130.646C170.531 133.8 173.235 136.053 176.501 136.053C176.839 136.053 177.29 136.052 177.628 135.94C179.317 135.602 180.894 134.701 181.908 133.237C183.034 131.885 183.372 130.083 183.034 128.394ZM179.43 131.547C178.867 132.336 178.078 132.899 177.177 133.012C175.15 133.349 173.347 131.998 173.009 130.083C172.672 128.169 173.911 126.254 175.938 125.916C176.163 125.916 176.389 125.916 176.501 125.916C178.303 125.916 179.768 127.155 179.993 128.844C180.218 129.858 179.993 130.759 179.43 131.547Z" fill="#D0D2D3"/>
<path d="M364.041 96.5207C364.604 99.6742 367.307 102.039 370.574 102.039C370.912 102.039 371.362 102.039 371.7 101.927C375.304 101.251 377.67 97.8722 377.107 94.2682C376.431 90.6641 373.052 88.299 369.447 88.8621C367.758 89.2 366.181 90.101 365.167 91.5652C364.041 93.0293 363.703 94.7187 364.041 96.5207ZM367.532 93.2545C368.096 92.4662 368.884 91.903 369.785 91.7904C370.01 91.7904 370.236 91.7904 370.461 91.7904C372.151 91.7904 373.615 93.0293 373.953 94.7187C374.291 96.6333 372.939 98.548 371.024 98.8859C368.997 99.2237 367.195 97.8722 366.857 95.9576C366.857 95.0566 367.082 94.0429 367.532 93.2545Z" fill="#D0D2D3"/>
<path d="M226.962 78.05C213.784 95.9576 211.982 120.172 222.457 139.657C222.682 140.22 223.245 140.445 223.808 140.445C224.034 140.445 224.259 140.332 224.484 140.22C225.273 139.882 225.498 138.868 225.16 138.192C215.248 119.609 216.938 96.746 229.44 79.7394C229.891 79.0636 229.778 78.05 229.102 77.5995C228.427 77.149 227.413 77.3742 226.962 78.05Z" fill="#D0D2D3"/>
<path d="M273.594 47.7535C238.001 47.7535 208.94 76.6985 208.94 112.401C208.94 113.302 209.616 113.978 210.517 113.978C211.306 113.978 212.094 113.302 212.094 112.401C212.094 78.5005 239.69 50.7944 273.706 50.7944C274.495 50.7944 275.283 50.1187 275.283 49.2177C275.058 48.4293 274.382 47.7535 273.594 47.7535Z" fill="#D0D2D3"/>
<path d="M257.712 199.123C262.781 200.024 268.075 200.587 273.481 200.587C278.888 200.587 284.182 200.024 289.25 199.123L293.418 219.734H296.572L292.291 198.56C331.939 189.888 361.675 154.636 361.675 112.514C361.675 63.9717 322.14 24.4399 273.594 24.4399C225.047 24.4399 185.512 63.9717 185.512 112.514C185.512 154.636 215.248 190.001 254.896 198.56L250.616 219.734H253.77L257.712 199.123ZM273.481 197.434C268.3 197.434 263.231 196.983 258.275 196.082L260.303 185.721C264.583 186.509 268.976 186.847 273.368 186.847C277.874 186.847 282.267 186.396 286.434 185.721L288.462 196.082C283.731 196.983 278.662 197.434 273.481 197.434ZM273.143 122.425C273.256 122.425 273.481 122.425 273.594 122.425C273.706 122.425 273.932 122.425 274.044 122.425L284.182 173.107C280.69 173.67 277.198 174.008 273.594 174.008C269.989 174.008 266.498 173.67 263.006 173.107L273.143 122.425ZM270.665 118.821C268.187 117.694 266.498 115.329 266.498 112.514C266.498 108.684 269.651 105.531 273.481 105.531C277.311 105.531 280.465 108.684 280.465 112.514C280.465 115.329 278.775 117.807 276.297 118.821L274.945 112.176C274.833 111.5 274.157 110.937 273.481 110.937C272.805 110.937 272.129 111.5 272.017 112.176L270.665 118.821ZM273.594 177.048C277.423 177.048 281.14 176.711 284.745 176.035L286.096 182.792C282.041 183.468 277.874 183.919 273.594 183.919C269.314 183.919 265.146 183.468 261.091 182.792L262.443 176.035C266.047 176.598 269.764 177.048 273.594 177.048ZM289.025 182.229L287.673 175.472C301.978 172.318 314.819 164.322 324.167 152.496C324.731 151.82 324.618 150.919 323.942 150.356C323.266 149.793 322.365 149.906 321.802 150.581C312.904 161.844 300.626 169.39 287.11 172.431L276.973 121.749C280.802 120.397 283.506 116.681 283.506 112.401C283.506 106.882 279 102.377 273.481 102.377C267.962 102.377 263.456 106.882 263.456 112.401C263.456 116.681 266.16 120.397 269.989 121.749L259.852 172.318C257.712 171.868 255.685 171.305 253.657 170.629C252.869 170.404 251.968 170.741 251.742 171.642C251.517 172.431 251.855 173.332 252.643 173.557C254.783 174.233 257.036 174.909 259.176 175.359L257.825 182.117C225.836 175.021 201.844 146.414 201.844 112.401C201.844 72.9818 233.946 40.8833 273.368 40.8833C312.791 40.8833 344.893 72.9818 344.893 112.401C345.005 146.527 321.014 175.021 289.025 182.229ZM188.441 112.401C188.441 65.5485 226.624 27.3682 273.481 27.3682C320.338 27.3682 358.521 65.5485 358.521 112.401C358.521 153.059 329.799 187.072 291.616 195.519L289.588 185.158C322.928 177.724 348.046 147.991 348.046 112.401C348.046 71.2924 314.593 37.8424 273.481 37.8424C232.369 37.8424 198.916 71.2924 198.916 112.401C198.916 147.991 223.921 177.724 257.374 185.158L255.347 195.519C217.163 187.185 188.441 153.059 188.441 112.401Z" fill="#D0D2D3"/>
<path d="M370.01 213.314H380.824L377.782 219.734H381.161L387.469 206.444C387.582 206.331 394.115 193.154 408.081 193.154C422.499 193.154 428.469 205.881 428.694 206.444L435.002 219.734H438.381L435.339 213.314H446.153L449.757 219.734H453.249L432.524 183.13C433.087 182.905 433.425 182.342 433.425 181.779V172.769C433.425 171.98 432.749 171.305 431.96 171.305H428.243L420.021 143.035H420.246C421.035 143.035 421.71 142.36 421.71 141.571V137.066C421.71 136.278 421.035 135.602 420.246 135.602H419.007L413.15 63.9717C413.263 63.7465 413.375 63.5212 413.375 63.1833V57.3268C413.375 56.7636 413.037 56.3131 412.7 56.0879V53.047C412.7 52.2586 412.024 51.5828 411.235 51.5828H409.658V32.8869C409.658 32.0985 408.983 31.4227 408.194 31.4227C407.406 31.4227 406.73 32.0985 406.73 32.8869V51.2449H405.153C404.365 51.2449 403.689 51.9207 403.689 52.7091V55.75C403.238 55.9752 403.013 56.4257 403.013 56.9889V63.0707C403.013 63.4086 403.126 63.7465 403.351 63.9717L397.719 135.377H396.255C395.466 135.377 394.79 136.053 394.79 136.841V141.346C394.79 142.134 395.466 142.81 396.255 142.81H396.48L388.258 171.079H384.541C383.752 171.079 383.076 171.755 383.076 172.543V181.554C383.076 182.117 383.414 182.68 383.977 182.905L362.914 219.621H366.406L370.01 213.314ZM392.65 195.632L393.889 193.154H396.48C395.016 193.83 393.777 194.731 392.65 195.632ZM395.241 190.113L398.507 183.243H417.656L420.922 190.113H395.241ZM420.134 193.154H422.499L423.513 195.407C422.499 194.506 421.373 193.83 420.134 193.154ZM444.576 210.273H433.988L430.609 203.178H440.521L444.576 210.273ZM438.831 200.137H429.144L425.765 193.041H434.776L438.831 200.137ZM433.199 190.113H424.414L421.147 183.243H429.37L433.199 190.113ZM425.09 170.967H417.768L417.092 166.236H423.738L425.09 170.967ZM422.837 163.308H416.642L415.966 158.803H421.598L422.837 163.308ZM419.345 151.37L420.697 155.875H415.515L414.84 151.37H419.345ZM397.832 148.329L399.409 142.923H416.867L418.444 148.329H397.832ZM414.727 170.967H401.661L404.59 151.37H411.911L414.727 170.967ZM415.966 135.377H412.925L412.812 131.885H415.628L415.966 135.377ZM415.403 128.844H412.7L412.587 125.578H415.178L415.403 128.844ZM414.952 122.537H412.474L412.362 119.271H414.614L414.952 122.537ZM414.389 116.23H412.249L412.136 112.964H414.164L414.389 116.23ZM413.939 109.923H412.024L411.911 106.657H413.601L413.939 109.923ZM413.375 103.729H411.799L411.686 100.463H413.15L413.375 103.729ZM412.925 97.4217H411.686L410.672 68.8146L412.925 97.4217ZM406.505 54.2858H409.658V55.6374H406.505V54.2858ZM405.829 58.6783H410.447V61.6066H408.87H407.518H405.829V58.6783ZM408.87 105.418L409.095 111.387L409.32 117.357C409.32 117.469 409.32 117.469 409.32 117.582C409.32 117.694 409.321 117.807 409.433 117.92L410.109 135.152H406.73L408.307 86.6096L408.983 104.855C408.983 104.968 408.983 104.968 408.983 105.08C408.757 105.306 408.87 105.418 408.87 105.418ZM405.716 68.8146L404.815 97.3091H403.576L405.716 68.8146ZM403.238 100.463H404.702L404.59 103.729H403.013L403.238 100.463ZM402.788 106.657H404.477L404.365 109.923H402.45L402.788 106.657ZM402.337 112.964H404.365L404.252 116.23H402.112L402.337 112.964ZM401.774 119.271H404.027L403.914 122.537H401.436L401.774 119.271ZM401.323 125.578H403.914L403.801 128.844H401.098L401.323 125.578ZM400.76 131.773H403.576L403.463 135.264H400.422L400.76 131.773ZM397.606 138.418H418.669V139.882H417.994H398.282H397.606V138.418ZM396.931 151.37H401.436L400.76 155.875H395.579L396.931 151.37ZM394.79 158.803H400.422L399.746 163.308H393.551L394.79 158.803ZM392.538 166.349H399.183L398.507 171.079H391.186L392.538 166.349ZM385.78 174.12H430.496V175.584H385.78V174.12ZM385.78 178.738H430.496V180.202H430.158H418.669H397.606H386.117H385.78V178.738ZM387.019 183.243H395.241L391.975 190.113H383.189L387.019 183.243ZM381.387 193.154H390.398L387.019 200.249H377.332L381.387 193.154ZM375.755 203.178H385.667L382.288 210.273H371.7L375.755 203.178Z" fill="#D0D2D3"/>
<path d="M653.403 219.621L661.175 223.45H667.821L657.796 218.495V213.202H670.975C671.313 213.202 671.763 213.089 671.988 212.751L676.945 207.795H686.181L708.708 218.495C708.933 218.608 709.046 218.608 709.271 218.608H724.815L736.304 222.212C736.417 222.212 736.642 222.324 736.754 222.324H866.737L871.017 223.338H886.223L882.731 216.13C883.52 208.246 881.154 202.277 879.915 199.686C884.646 196.758 904.245 185.946 928.799 190.789L891.404 223.338H895.91L913.143 208.359V213.427C913.143 213.99 913.481 214.553 914.044 214.778L929.475 220.635L931.503 223.225H935.22L931.503 218.495C931.39 218.27 931.165 218.157 930.827 218.044L915.959 212.413V205.768L932.967 191.014C933.418 190.676 933.53 190.113 933.418 189.55C933.305 188.987 932.854 188.649 932.291 188.424C904.019 181.554 881.83 194.843 877.888 197.434C870.003 194.618 863.696 192.816 858.852 191.577L869.778 171.755C870.003 171.305 870.003 170.854 869.891 170.516C869.665 170.066 869.327 169.84 868.877 169.728C834.635 160.943 809.743 176.823 803.66 181.216C776.74 129.633 730.447 128.281 729.996 128.281C729.546 128.281 729.095 128.507 728.757 128.844C728.532 129.182 728.419 129.745 728.532 130.196C732.136 141.008 735.178 151.482 737.656 161.393C731.798 158.353 717.832 152.383 700.598 152.158C700.148 152.158 699.697 152.383 699.472 152.721C699.247 153.059 699.134 153.622 699.247 153.96C699.247 154.073 701.274 160.943 703.301 171.642C697.219 169.953 680.549 166.011 664.217 170.178C663.766 170.291 663.541 170.516 663.316 170.854C663.09 171.192 663.09 171.642 663.203 171.98L672.89 200.362C661.851 200.925 653.854 206.106 653.516 206.331C653.178 206.557 652.953 206.894 652.84 207.345C652.728 207.795 652.84 208.133 653.178 208.471L654.98 210.611C654.868 210.836 654.868 210.949 654.868 211.174V216.468L652.615 215.341C652.165 215.116 651.601 215.116 651.151 215.454C650.7 215.679 650.475 216.242 650.475 216.693V222.887H653.403V219.621ZM736.867 219.509L725.378 215.905C725.266 215.905 725.04 215.792 724.928 215.792H716.255L719.183 209.71L736.642 212.864L739.796 219.509H736.867ZM761.309 219.509L773.361 209.71L796.79 216.468C796.902 216.468 797.015 216.468 797.128 216.468C797.128 216.468 797.128 216.468 797.24 216.468C797.353 216.468 797.353 216.468 797.465 216.468L824.498 211.963L830.693 219.396H761.309V219.509ZM776.177 207.458L800.169 187.973C798.592 193.267 796.339 202.502 795.776 213.089L776.177 207.458ZM843.534 219.509L851.531 204.98L858.965 219.396H843.534V219.509ZM880.253 217.932L882.956 223.45L868.652 219.959L869.553 216.693L880.253 217.932ZM876.987 200.475C877.775 201.939 880.366 207.458 879.915 214.891L868.652 213.539C867.976 213.427 867.3 213.877 867.075 214.666L865.723 219.509H862.231L848.602 192.929C852.77 193.492 862.119 195.181 876.987 200.475ZM866.286 172.318L855.811 191.239C849.503 189.888 846.35 189.775 846.124 189.775C845.561 189.775 845.111 190.001 844.885 190.451C844.66 190.902 844.547 191.465 844.773 191.915L849.954 201.939L840.267 219.509H834.523L805.35 183.919C810.531 179.977 833.847 164.772 866.286 172.318ZM803.66 186.622L822.358 209.372L798.704 213.202C799.268 201.376 802.196 191.127 803.66 186.622ZM732.024 131.66C741.26 132.561 778.43 139.093 801.295 183.356L756.691 219.509H750.947C750.383 213.99 747.905 192.028 741.26 164.434V164.322C738.782 153.96 735.741 142.923 732.024 131.66ZM702.513 155.537C721.098 156.213 735.741 163.984 738.669 165.561C745.09 192.366 747.568 213.652 748.131 219.509H743.062L739.007 210.949C738.782 210.498 738.444 210.273 737.993 210.161L718.845 206.669C718.169 206.557 717.606 206.894 717.268 207.458L713.213 215.792H710.735C710.623 200.137 708.708 185.383 706.568 174.12V174.008C704.991 165.223 703.301 158.578 702.513 155.537ZM666.357 173.107C682.914 169.503 699.922 174.233 703.752 175.359C705.667 186.171 707.469 200.137 707.694 214.891L686.969 205.092C686.744 204.98 686.519 204.98 686.293 204.98H677.17L666.357 173.107ZM673.791 203.741L674.579 205.993L670.299 210.273H658.022L656.445 208.359C659.261 207.007 665.794 204.079 673.791 203.741Z" fill="#D0D2D3"/>
<path d="M566.223 81.7667L591.453 62.8454V88.0737H584.47C583.682 88.0737 583.118 88.7495 583.118 89.4252V114.654C583.118 115.442 583.794 116.005 584.47 116.005H591.453V120.172H571.066C570.278 120.172 569.715 120.848 569.715 121.524V200.137C569.715 200.925 570.39 201.488 571.066 201.488H591.453V219.621H594.269V114.654C594.269 113.865 593.594 113.302 592.918 113.302H590.778V90.8894H592.918C593.706 90.8894 594.269 90.2136 594.269 89.5379V44.4874C594.269 43.699 593.594 43.1358 592.918 43.1358C592.129 43.1358 591.566 43.8116 591.566 44.4874V59.2414L564.083 79.852C563.745 80.0773 563.52 80.5278 563.52 80.9783V219.621H566.336V81.7667H566.223ZM591.453 198.898H572.531V196.082H591.453V198.898ZM591.453 193.267H572.531V190.451H591.453V193.267ZM591.453 187.635H572.531V184.82H591.453V187.635ZM591.453 182.117H572.531V179.301H591.453V182.117ZM591.453 176.485H572.531V173.67H591.453V176.485ZM591.453 170.854H572.531V168.038H591.453V170.854ZM591.453 165.223H572.531V162.407H591.453V165.223ZM591.453 159.591H572.531V156.776H591.453V159.591ZM591.453 153.96H572.531V151.144H591.453V153.96ZM591.453 148.441H572.531V145.626H591.453V148.441ZM591.453 142.81H572.531V139.994H591.453V142.81ZM591.453 137.179H572.531V134.363H591.453V137.179ZM591.453 131.547H572.531V128.732H591.453V131.547ZM591.453 125.916H572.531V123.1H591.453V125.916ZM587.962 113.302H585.822V90.8894H587.962V113.302Z" fill="#D0D2D3"/>
<path d="M614.093 201.714H630.764C631.552 201.714 632.115 201.038 632.115 200.362V121.749C632.115 120.961 631.439 120.397 630.764 120.397H613.981V116.23H620.964C621.753 116.23 622.316 115.555 622.316 114.879V89.0874C622.316 88.299 621.64 87.7359 620.964 87.7359H613.981V72.0808L636.17 86.6096V219.621H638.986V85.8212C638.986 85.3707 638.761 84.9202 638.31 84.6949L614.093 68.702V54.3985C614.093 53.6101 613.418 53.047 612.742 53.047C611.953 53.047 611.39 53.7227 611.39 54.3985V89.0874C611.39 89.8758 612.066 90.4389 612.742 90.4389H614.882V113.189H612.742C611.953 113.189 611.39 113.865 611.39 114.541V219.621H614.206V201.714H614.093ZM617.585 90.5515H619.725V113.302H617.585V90.5515ZM614.093 123.101H629.412V125.916H614.093V123.101ZM614.093 128.732H629.412V131.547H614.093V128.732ZM614.093 134.363H629.412V137.179H614.093V134.363ZM614.093 139.994H629.412V142.81H614.093V139.994ZM614.093 145.626H629.412V148.441H614.093V145.626ZM614.093 151.144H629.412V153.96H614.093V151.144ZM614.093 156.776H629.412V159.591H614.093V156.776ZM614.093 162.407H629.412V165.223H614.093V162.407ZM614.093 168.038H629.412V170.854H614.093V168.038ZM614.093 173.67H629.412V176.485H614.093V173.67ZM614.093 179.301H629.412V182.117H614.093V179.301ZM614.093 184.932H629.412V187.748H614.093V184.932ZM614.093 190.451H629.412V193.267H614.093V190.451ZM614.093 196.082H629.412V198.898H614.093V196.082Z" fill="#D0D2D3"/>
<path d="M578.838 116.118C579.627 116.118 580.19 115.442 580.19 114.766V93.7051C580.19 92.9167 579.514 92.3535 578.838 92.3535C578.05 92.3535 577.487 93.0293 577.487 93.7051V114.766C577.487 115.442 578.05 116.118 578.838 116.118Z" fill="#D0D2D3"/>
<path d="M574.671 116.118C575.459 116.118 576.022 115.442 576.022 114.766V93.7051C576.022 92.9167 575.347 92.3535 574.671 92.3535C573.882 92.3535 573.319 93.0293 573.319 93.7051V114.766C573.206 115.442 573.882 116.118 574.671 116.118Z" fill="#D0D2D3"/>
<path d="M571.855 114.654V93.7051C571.855 92.9167 571.179 92.3535 570.503 92.3535C569.715 92.3535 569.151 93.0293 569.151 93.7051V114.766C569.151 115.555 569.827 116.118 570.503 116.118C571.179 116.118 571.855 115.442 571.855 114.654Z" fill="#D0D2D3"/>
<path d="M630.764 92.2409C629.975 92.2409 629.412 92.9167 629.412 93.5924V114.654C629.412 115.442 630.088 116.005 630.764 116.005C631.552 116.005 632.115 115.329 632.115 114.654V93.705C632.228 92.9167 631.552 92.2409 630.764 92.2409Z" fill="#D0D2D3"/>
<path d="M626.596 92.2409C625.808 92.2409 625.244 92.9167 625.244 93.5924V114.654C625.244 115.442 625.92 116.005 626.596 116.005C627.385 116.005 627.948 115.329 627.948 114.654V93.705C627.948 92.9167 627.385 92.2409 626.596 92.2409Z" fill="#D0D2D3"/>
<path d="M1.12634 222.437H1099.89" stroke="#0FC500" stroke-width="2" stroke-miterlimit="10"/>
<path d="M516.663 203.628C516.325 203.29 515.875 202.953 515.424 202.615C513.622 201.376 511.482 201.038 509.342 201.488C505.625 202.277 502.809 205.656 502.809 209.485C502.809 210.048 502.809 210.611 502.921 211.062C503.71 214.891 507.089 217.594 510.919 217.594C511.482 217.594 512.045 217.594 512.495 217.481C513.284 217.369 514.072 217.031 514.748 216.693C517.789 215.004 519.479 211.512 518.803 207.908C518.578 206.219 517.789 204.755 516.663 203.628Z" fill="#0FC500"/>
<path d="M567.124 186.284C559.127 181.891 550.003 179.414 540.88 178.963H540.204V187.635H569.602L567.124 186.284Z" fill="#0FC500"/>
<path d="M515.649 189.775L510.468 184.594L510.017 184.82C507.99 185.833 505.963 186.847 504.048 188.086C503.935 188.198 503.71 188.198 503.597 188.311L491.545 190V193.267H497.177V195.744H491.545V204.079C491.545 205.768 492.559 207.232 494.023 207.795L500.218 210.273V209.372C500.218 209.26 500.218 209.147 500.218 209.034V208.696C500.218 208.584 500.218 208.471 500.218 208.359C500.218 208.246 500.218 208.133 500.218 208.021V207.683C500.218 207.57 500.218 207.458 500.218 207.345C500.218 207.232 500.331 207.12 500.331 207.007L500.443 206.669C500.443 206.557 500.443 206.444 500.556 206.331C500.556 206.219 500.669 206.106 500.669 205.993L500.894 205.318C500.894 205.205 501.006 205.092 501.006 204.98L501.119 204.642C501.119 204.529 501.232 204.417 501.232 204.304C501.232 204.191 501.344 204.191 501.344 204.079C501.344 203.966 501.457 203.966 501.457 203.854C501.57 203.741 501.57 203.516 501.682 203.403C501.795 203.29 501.795 203.29 501.908 203.178L502.133 202.953C502.245 202.84 502.246 202.727 502.358 202.615C502.471 202.502 502.583 202.389 502.696 202.277C502.809 202.164 502.809 202.164 502.921 202.052C503.034 201.939 503.034 201.939 503.147 201.826C503.259 201.714 503.259 201.714 503.372 201.601L503.935 201.151C504.048 201.038 504.048 201.038 504.16 200.925L504.386 200.7C504.498 200.587 504.611 200.587 504.611 200.475L504.836 200.362C504.949 200.362 505.061 200.249 505.061 200.249C505.174 200.137 505.287 200.137 505.399 200.024C505.512 200.024 505.625 199.912 505.737 199.912L506.075 199.799C506.188 199.799 506.188 199.686 506.3 199.686C506.413 199.686 506.526 199.574 506.638 199.574L506.976 199.461C507.089 199.461 507.089 199.348 507.201 199.348C507.314 199.348 507.539 199.236 507.652 199.236L507.99 199.123C508.103 199.123 508.103 199.123 508.215 199.123C508.328 199.123 508.553 199.123 508.666 199.011L509.116 198.898C509.229 198.898 509.229 198.898 509.342 198.898C509.68 198.898 510.017 198.898 510.468 198.898C516.325 198.898 521.056 203.628 521.056 209.485V210.161H537.275V190.226H516.1C516.212 190.113 515.874 190 515.649 189.775Z" fill="#0FC500"/>
<path d="M536.036 178.85C528.377 178.85 520.943 180.315 513.847 183.13L512.946 183.468L517.114 187.635H537.839V178.85H536.036Z" fill="#0FC500"/>
<path d="M580.415 201.488C576.698 202.277 573.882 205.656 573.882 209.485C573.882 210.048 573.882 210.611 573.995 211.062C574.783 214.891 578.162 217.594 581.992 217.594C582.555 217.594 583.118 217.594 583.569 217.481C587.962 216.58 590.778 212.3 589.877 207.908C589.088 203.403 584.808 200.587 580.415 201.488Z" fill="#0FC500"/>
<path d="M594.833 195.519C588.638 192.028 581.654 190.113 574.445 190.113H540.204V210.048H571.404V209.485C571.404 203.628 576.135 198.898 581.992 198.898C587.849 198.898 592.58 203.628 592.58 209.485V210.161H597.536V200.25C597.536 199.799 597.423 199.236 597.311 198.785C597.085 197.434 596.072 196.195 594.833 195.519Z" fill="#0FC500"/>
<path d="M106.779 169.728H87.2932V180.089H106.779V169.728Z" fill="#0FC500"/>
<path d="M127.392 169.728H110.158V180.089H127.392V169.728Z" fill="#0FC500"/>
<path d="M76.5927 201.714C72.4251 201.714 69.1587 205.092 69.1587 209.147C69.1587 213.314 72.5378 216.58 76.5927 216.58C80.7602 216.58 84.0267 213.202 84.0267 209.147C84.0267 205.092 80.6476 201.714 76.5927 201.714Z" fill="#0FC500"/>
<path d="M84.0267 169.728H66.7933V180.089H84.0267V169.728Z" fill="#0FC500"/>
<path d="M155.889 180.315L178.979 182.229L172.334 167.475L155.889 169.615V180.315Z" fill="#0FC500"/>
<path d="M154.199 201.714C150.032 201.714 146.765 205.092 146.765 209.147C146.765 213.314 150.144 216.58 154.199 216.58C158.367 216.58 161.633 213.202 161.633 209.147C161.746 205.092 158.367 201.714 154.199 201.714Z" fill="#0FC500"/>
<path d="M152.622 169.728H130.771V180.089H152.622V169.728Z" fill="#0FC500"/>
<path d="M65.1038 183.468C64.2027 183.468 63.4142 182.68 63.4142 181.779V168.038C63.4142 167.137 64.2027 166.349 65.1038 166.349H154.087L170.306 164.322L169.292 163.421C167.152 161.619 164.449 160.605 161.633 160.492H60.373C55.0791 160.492 50.799 164.772 50.799 170.066V203.966C50.799 205.881 52.3759 207.458 54.2907 207.458H65.8922L66.0049 207.007C67.0186 202.052 71.4114 198.335 76.5927 198.335C81.6613 198.335 86.1668 201.939 87.1805 207.007L87.2931 207.458H143.611L143.724 207.007C144.738 202.052 149.243 198.335 154.312 198.335C159.38 198.335 163.886 201.939 164.9 207.007L165.012 207.458H177.628C178.979 207.458 179.993 206.331 179.993 205.092V185.608L154.087 183.468H65.1038Z" fill="#0FC500"/>
<path d="M175.262 166.011C172.784 160.718 167.49 157.339 161.633 157.226H60.3731C53.277 157.226 47.4199 163.083 47.4199 170.178V204.079C47.4199 207.795 50.4611 210.836 54.1781 210.836H65.7797L65.8923 211.287C66.906 216.242 71.2988 219.959 76.4801 219.959C81.5487 219.959 86.0542 216.355 87.0679 211.287L87.1806 210.836H143.499L143.611 211.287C144.625 216.242 149.018 219.959 154.199 219.959C159.268 219.959 163.773 216.355 164.787 211.287L164.9 210.836H177.515C180.669 210.836 183.259 208.246 183.259 205.092V186.059C183.259 184.482 182.921 183.018 182.246 181.554L175.262 166.011ZM172.334 167.475L178.979 182.229L155.889 180.315V169.615L172.334 167.475ZM76.5927 216.693C72.4252 216.693 69.1587 213.314 69.1587 209.26C69.1587 205.092 72.5378 201.826 76.5927 201.826C80.6477 201.826 84.0267 205.205 84.0267 209.26C84.0267 213.314 80.6477 216.693 76.5927 216.693ZM154.199 216.693C150.032 216.693 146.765 213.314 146.765 209.26C146.765 205.092 150.144 201.826 154.199 201.826C158.367 201.826 161.633 205.205 161.633 209.26C161.746 213.314 158.367 216.693 154.199 216.693ZM179.993 205.205C179.993 206.557 178.867 207.57 177.628 207.57H165.012L164.9 207.12C163.886 202.164 159.493 198.447 154.312 198.447C149.243 198.447 144.738 202.052 143.724 207.12L143.611 207.57H87.2932L87.1806 207.12C86.1668 202.164 81.774 198.447 76.5927 198.447C71.5241 198.447 67.0186 202.052 66.0049 207.12L65.8923 207.57H54.2907C52.3759 207.57 50.799 205.993 50.799 204.079V170.178C50.799 164.885 55.0792 160.605 60.3731 160.605H161.633C164.449 160.605 167.152 161.619 169.292 163.533L170.306 164.434L154.087 166.462H65.1038C64.2027 166.462 63.4143 167.25 63.4143 168.151V181.891C63.4143 182.792 64.2027 183.581 65.1038 183.581H154.087L179.993 185.721V205.205ZM152.622 180.202H130.771V169.84H152.622V180.202ZM127.392 180.202H110.158V169.84H127.392V180.202ZM106.892 180.202H87.2932V169.84H106.779V180.202H106.892ZM84.0267 180.202H66.7934V169.84H84.0267V180.202Z" fill="white"/>
<path d="M596.072 193.379C589.651 189.775 582.33 187.748 575.009 187.635H574.896L568.363 184.031C559.127 179.076 548.764 176.373 538.289 176.373H536.036H535.924C527.026 176.373 518.353 178.287 510.243 181.891C507.765 183.018 505.399 184.257 503.147 185.721L502.921 185.833L490.193 187.635C489.63 187.748 489.18 188.198 489.18 188.874V203.966C489.18 206.669 490.757 209.034 493.235 209.935L499.317 212.413C499.43 212.526 499.655 212.526 499.768 212.526H500.894L501.006 212.976C502.02 216.017 504.386 218.382 507.427 219.396C510.13 220.297 512.946 220.184 515.537 218.945C518.127 217.707 520.042 215.567 520.943 212.976L521.056 212.526H571.855L571.967 212.976C572.981 216.017 575.347 218.382 578.388 219.396C581.091 220.297 583.907 220.184 586.498 218.945C589.088 217.707 590.89 215.567 591.904 212.976L592.017 212.526H598.775C599.451 212.526 600.014 211.963 600.014 211.287V200.137C600.014 197.434 598.55 194.731 596.072 193.379ZM514.861 216.58C514.185 216.918 513.397 217.256 512.608 217.369C512.045 217.481 511.482 217.481 511.031 217.481C507.314 217.481 503.822 214.778 503.034 210.949C502.921 210.386 502.921 209.823 502.921 209.372C502.921 205.543 505.625 202.164 509.454 201.376C511.594 200.925 513.734 201.376 515.537 202.502C515.987 202.84 516.438 203.178 516.776 203.516C517.902 204.642 518.69 206.106 519.028 207.683C519.591 211.4 517.902 214.891 514.861 216.58ZM537.726 210.048H521.506V209.372C521.506 203.516 516.776 198.785 510.919 198.785C510.581 198.785 510.243 198.785 509.792 198.785C509.68 198.785 509.679 198.785 509.567 198.785L509.116 198.898C509.004 198.898 508.778 198.898 508.666 199.011C508.553 199.011 508.553 199.011 508.44 199.011L508.103 199.123C507.99 199.123 507.765 199.236 507.652 199.236C507.539 199.236 507.539 199.236 507.427 199.349L507.089 199.461C506.976 199.461 506.864 199.574 506.751 199.574C506.638 199.574 506.526 199.686 506.526 199.686L506.188 199.799C506.075 199.799 505.963 199.912 505.85 199.912C505.737 200.024 505.625 200.024 505.399 200.137C505.287 200.25 505.174 200.25 505.174 200.25L504.949 200.362C504.836 200.475 504.724 200.475 504.724 200.587L504.498 200.813C504.386 200.925 504.386 200.925 504.273 201.038L503.71 201.488C503.597 201.601 503.597 201.601 503.484 201.714C503.372 201.826 503.372 201.826 503.259 201.939C503.147 202.052 503.147 202.052 503.034 202.164C502.921 202.277 502.809 202.389 502.696 202.502C502.583 202.615 502.471 202.727 502.471 202.84L502.245 203.065C502.133 203.178 502.133 203.178 502.02 203.29C501.908 203.403 501.795 203.628 501.795 203.741C501.795 203.854 501.682 203.854 501.682 203.966C501.682 204.079 501.57 204.079 501.57 204.191C501.57 204.304 501.457 204.417 501.457 204.529L501.344 204.867C501.344 204.98 501.232 205.092 501.232 205.205L501.006 205.881C501.006 205.993 500.894 206.106 500.894 206.219C500.894 206.331 500.894 206.444 500.781 206.557L500.669 206.894C500.669 207.007 500.556 207.12 500.556 207.232C500.556 207.345 500.556 207.458 500.556 207.57L500.443 207.908C500.443 208.021 500.443 208.133 500.443 208.246C500.443 208.359 500.443 208.471 500.443 208.584V208.922C500.443 209.034 500.443 209.147 500.443 209.26V210.161L494.248 207.683C492.671 207.12 491.77 205.656 491.77 203.966V195.632H497.402V193.154H491.77V189.888L503.822 188.199C504.048 188.199 504.16 188.086 504.273 187.973C506.188 186.734 508.215 185.721 510.243 184.707L510.693 184.482L515.875 189.663C516.1 189.888 516.438 190.001 516.776 190.001H537.951V210.048H537.726ZM537.726 187.635H517.001L512.833 183.468L513.734 183.13C520.831 180.315 528.265 178.851 535.924 178.851H536.036H537.726V187.635ZM540.204 178.963H540.88C550.003 179.414 559.127 181.891 567.124 186.284L569.715 187.635H540.317V178.963H540.204ZM583.682 217.369C583.118 217.481 582.555 217.481 582.105 217.481C578.388 217.481 574.896 214.778 574.108 210.949C573.995 210.386 573.995 209.823 573.995 209.372C573.995 205.543 576.698 202.164 580.528 201.376C584.921 200.475 589.201 203.29 590.102 207.683C590.89 212.188 587.962 216.468 583.682 217.369ZM597.649 210.048H592.693V209.485C592.693 203.628 587.962 198.898 582.105 198.898C576.248 198.898 571.517 203.628 571.517 209.485V210.161H540.317V190.226H574.558C581.654 190.226 588.75 192.14 594.945 195.632C596.184 196.308 597.085 197.546 597.423 198.898C597.536 199.349 597.649 199.799 597.649 200.362V210.048Z" fill="white"/>
<path d="M964.618 203.403C960.45 203.403 957.071 206.782 957.071 210.949C957.071 215.116 960.45 218.495 964.618 218.495C968.785 218.495 972.164 215.116 972.164 210.949C972.164 206.782 968.673 203.403 964.618 203.403Z" fill="#0FC500"/>
<path d="M943.893 194.506H948.398C949.187 194.506 949.862 195.181 949.862 195.97C949.862 196.758 949.187 197.434 948.398 197.434H943.893V203.966C943.893 205.318 945.019 206.444 946.371 206.444H955.044L955.382 205.881C957.184 202.502 960.676 200.475 964.505 200.475C968.335 200.475 971.827 202.615 973.629 205.881L973.967 206.444H983.991V185.383H943.893V194.506Z" fill="#0FC500"/>
<path d="M1018.57 203.403C1014.4 203.403 1011.02 206.782 1011.02 210.949C1011.02 215.116 1014.4 218.495 1018.57 218.495C1022.74 218.495 1026.12 215.116 1026.12 210.949C1026.12 206.782 1022.63 203.403 1018.57 203.403Z" fill="#0FC500"/>
<path d="M963.717 167.475H951.101C950.876 167.475 950.538 167.475 950.313 167.588C949.637 167.813 948.961 168.376 948.736 169.165L943.667 182.567H960.338L963.717 167.475Z" fill="#0FC500"/>
<path d="M963.379 182.455H984.104V167.475H966.758L963.379 182.455Z" fill="#0FC500"/>
<path d="M1009.56 168.602C1009.11 167.926 1008.32 167.475 1007.42 167.475H987.032V182.455H1018.8L1009.56 168.602Z" fill="#0FC500"/>
<path d="M1034.68 185.383H987.032V206.444H1009.11L1009.45 205.881C1011.25 202.502 1014.74 200.475 1018.57 200.475C1022.4 200.475 1025.89 202.615 1027.69 205.881L1028.03 206.444H1036.71C1038.06 206.444 1039.18 205.318 1039.18 203.966V197.434H1034.68C1033.89 197.434 1033.21 196.758 1033.21 195.97C1033.21 195.181 1033.89 194.506 1034.68 194.506H1039.18V190.001C1039.3 187.41 1037.27 185.383 1034.68 185.383ZM1003.59 197.434H997.62C996.832 197.434 996.156 196.758 996.156 195.97C996.156 195.181 996.832 194.506 997.62 194.506H1003.59C1004.38 194.506 1005.05 195.181 1005.05 195.97C1005.05 196.758 1004.38 197.434 1003.59 197.434Z" fill="#0FC500"/>
<path d="M1003.59 194.506H997.62C996.832 194.506 996.156 195.181 996.156 195.97C996.156 196.758 996.832 197.434 997.62 197.434H1003.59C1004.38 197.434 1005.05 196.758 1005.05 195.97C1005.05 195.181 1004.38 194.506 1003.59 194.506Z" fill="white"/>
<path d="M1034.68 182.455H1022.29L1011.93 166.912C1010.91 165.335 1009.22 164.434 1007.42 164.434H951.214C948.961 164.434 946.934 165.899 946.145 167.926L941.077 181.328C940.964 181.441 940.964 181.666 940.964 181.891V203.854C940.964 206.894 943.442 209.26 946.483 209.26H954.255V210.386C954.255 210.498 954.255 210.611 954.255 210.836C954.255 216.58 958.986 221.311 964.73 221.311C970.475 221.311 975.206 216.58 975.206 210.836C975.206 210.724 975.206 210.498 975.206 210.386V209.26H984.217H1008.1L1007.98 210.611C1007.98 210.724 1007.98 210.724 1007.98 210.836C1007.98 216.58 1012.71 221.311 1018.46 221.311C1024.2 221.311 1028.93 216.58 1028.93 210.836C1028.93 210.724 1028.93 210.498 1028.93 210.386V209.26H1036.71C1039.75 209.26 1042.22 206.782 1042.22 203.741V189.775C1042.22 185.833 1038.85 182.455 1034.68 182.455ZM987.032 167.475H1007.42C1008.32 167.475 1009.11 167.926 1009.56 168.602L1018.8 182.567H987.032V167.475ZM948.736 169.052C948.961 168.264 949.637 167.813 950.313 167.475C950.538 167.363 950.764 167.363 951.101 167.363H963.717L960.338 182.455H943.667L948.736 169.052ZM964.618 218.495C960.45 218.495 957.071 215.116 957.071 210.949C957.071 206.782 960.45 203.403 964.618 203.403C968.785 203.403 972.164 206.782 972.164 210.949C972.164 215.116 968.673 218.495 964.618 218.495ZM984.104 206.444H974.079L973.741 205.881C971.939 202.502 968.447 200.475 964.618 200.475C960.788 200.475 957.296 202.615 955.494 205.881L955.156 206.444H946.483C945.132 206.444 944.005 205.318 944.005 203.966V197.434H948.511C949.299 197.434 949.975 196.758 949.975 195.97C949.975 195.181 949.299 194.506 948.511 194.506H944.005V185.495H984.217V206.444H984.104ZM984.104 182.455H963.379L966.758 167.363H984.104V182.455ZM1018.57 218.495C1014.4 218.495 1011.02 215.116 1011.02 210.949C1011.02 206.782 1014.4 203.403 1018.57 203.403C1022.74 203.403 1026.12 206.782 1026.12 210.949C1026.12 215.116 1022.63 218.495 1018.57 218.495ZM1039.3 194.506H1034.79C1034 194.506 1033.33 195.181 1033.33 195.97C1033.33 196.758 1034 197.434 1034.79 197.434H1039.3V203.966C1039.3 205.318 1038.17 206.444 1036.82 206.444H1028.14L1027.81 205.881C1026 202.502 1022.4 200.475 1018.68 200.475C1014.85 200.475 1011.36 202.615 1009.56 205.881L1009.22 206.444H987.145V185.383H1034.79C1037.27 185.383 1039.3 187.41 1039.3 189.888V194.506Z" fill="white"/>
<path d="M1220.98 120.06C1221.54 120.285 1234.83 126.029 1234.83 141.571V162.97C1234.83 163.759 1235.51 164.547 1236.41 164.547C1237.2 164.547 1237.99 163.871 1237.99 162.97V141.571C1237.99 125.015 1224.47 118.258 1222.56 117.357H1221.2V116.793L1183.25 102.152V91.3399L1183.92 90.8894C1189.78 86.2717 1193.61 79.7394 1194.51 72.4187L1194.73 71.0672L1196.09 70.9545C1198.79 70.7293 1201.15 69.7157 1203.18 68.0263C1205.77 65.7737 1207.35 62.5076 1207.35 59.1288C1207.35 56.3131 1206.34 53.4975 1204.53 51.3576L1204.2 50.9071V38.5182C1204.2 17.6823 1187.3 0.788376 1166.46 0.788376C1145.62 0.788376 1128.73 17.6823 1128.73 38.5182V51.1323L1128.28 51.5828C1126.36 53.7227 1125.46 56.3131 1125.46 59.0162C1125.46 62.5076 1126.93 65.7737 1129.63 67.9136C1131.66 69.603 1134.14 70.6167 1136.73 70.8419L1138.08 70.9545L1138.3 72.3061C1139.32 79.852 1143.37 86.7222 1149.57 91.2273L1150.24 91.6778V102.039L1111.83 116.906L1111.38 117.131C1109.69 117.807 1095.61 124.452 1095.61 141.459V207.458C1095.61 211.062 1098.54 213.877 1102.03 213.877H1123.89V217.143C1123.89 220.184 1126.81 222.662 1130.42 222.662H1203.29C1206.9 222.662 1209.83 220.184 1209.83 217.143V213.99H1223.57L1225.15 213.877H1231.68C1235.28 213.877 1238.1 210.949 1238.1 207.458V177.612C1238.1 177.161 1237.99 176.823 1237.65 176.485C1237.31 176.147 1236.97 176.035 1236.63 176.035C1235.85 176.035 1235.06 176.711 1235.06 177.612V207.458C1235.06 209.26 1233.59 210.836 1231.68 210.836H1226.72V212.638H1223.46V211.174H1209.71V184.257H1223.46V181.328H1212.98V146.865C1212.98 146.076 1212.31 145.288 1211.4 145.288C1210.62 145.288 1209.83 145.964 1209.83 146.865V161.844L1207.24 160.042C1206 159.254 1204.65 158.803 1203.07 158.803H1177.5L1173.9 137.291L1177.73 131.435L1179.53 132.786C1180.65 133.575 1181.44 134.138 1182.68 134.138C1184.15 134.138 1185.5 133.349 1186.17 131.998L1196.87 110.599L1220.98 120.06ZM1203.97 59.0162C1203.97 61.6066 1202.84 63.9717 1200.93 65.6611C1199.58 66.7874 1198.11 67.4631 1196.42 67.6884L1194.51 68.0263V50.0061L1196.42 50.3439C1200.82 51.0197 1203.97 54.7364 1203.97 59.0162ZM1137.63 68.0263L1135.71 67.6884C1131.32 67.0126 1128.17 63.296 1128.17 59.0162C1128.17 55.0742 1131.21 51.5828 1135.6 50.4566L1137.63 50.0061V68.0263ZM1137.74 46.0641L1137.51 47.1904L1136.39 47.303C1135.49 47.4156 1134.47 47.6409 1133.69 47.8662L1131.54 48.5419V38.4055C1131.54 19.3717 1147.09 3.82929 1166.12 3.82929C1185.16 3.82929 1200.7 19.3717 1200.7 38.4055V48.204L1198.56 47.5283C1197.78 47.303 1196.99 47.0778 1196.09 47.0778L1194.62 46.9651V45.501C1194.62 43.5864 1194.62 43.5864 1188.99 37.6172C1187.86 36.4909 1186.62 35.0268 1185.05 33.45C1183.7 31.9859 1181.56 31.7606 1179.98 32.7742C1168.71 40.2076 1154.86 43.9242 1142.02 43.0232C1140.11 42.9106 1138.3 44.1495 1137.74 46.0641ZM1148.1 86.2717C1143.48 81.654 1140.78 75.2343 1140.78 68.702V46.1768L1142.47 46.2894C1155.54 47.0778 1169.62 43.2485 1181.1 35.8151L1182.23 35.0268L1186.51 39.6444C1189.1 42.3475 1190.45 43.9242 1191.13 44.6L1191.47 45.0505V68.5894C1191.47 82.3298 1180.2 93.5924 1166.46 93.5924H1166.35C1159.37 93.5924 1152.83 91.002 1148.1 86.2717ZM1180.09 93.3672V102.603L1166.57 119.271L1152.95 102.49V93.5924L1155.2 94.4934C1158.69 95.9576 1162.52 96.6333 1166.57 96.6333C1170.4 96.6333 1174.23 95.8449 1177.84 94.2682L1180.09 93.3672ZM1150.92 104.968L1164.21 121.411L1161.17 123.551C1156.1 127.155 1152.04 129.971 1151.59 130.309L1150.02 131.435L1139.09 109.473L1150.92 104.968ZM1123.32 161.844V146.865C1123.32 146.076 1122.65 145.288 1121.75 145.288C1120.96 145.288 1120.17 145.964 1120.17 146.865V181.103H1111.72V184.031H1123.44V210.949H1101.47C1099.67 210.949 1098.09 209.485 1098.09 207.57V141.459C1098.09 125.804 1111.72 120.06 1111.83 119.947L1136.05 110.599L1146.75 131.998C1147.43 133.349 1148.78 134.138 1150.24 134.138C1151.59 134.138 1152.27 133.575 1153.4 132.786L1155.2 131.547L1159.03 137.404L1155.42 158.916H1129.97C1128.39 158.916 1127.04 159.366 1125.8 160.155L1123.32 161.844ZM1202.96 161.731C1204.87 161.731 1206.56 162.97 1206.56 164.322V217.256C1206.56 218.72 1204.87 219.846 1202.96 219.846H1130.08C1128.17 219.846 1126.48 218.608 1126.48 217.256V164.322C1126.48 162.858 1128.17 161.731 1130.08 161.731H1202.96ZM1174.23 158.803H1158.69L1162.07 138.53H1170.74L1174.23 158.803ZM1171.31 135.489H1161.62L1157.9 129.858L1166.57 123.776L1175.14 129.858L1171.31 135.489ZM1182.91 131.66L1181.33 130.421C1180.99 130.196 1177.05 127.38 1170.18 122.537L1168.71 121.524L1170.86 118.821C1171.76 117.694 1171.76 117.694 1181.33 105.981L1182.12 105.08L1193.95 109.585L1182.91 131.66Z" fill="#D0D2D3"/>
<path d="M1138.53 192.366H1143.37V202.389H1146.86V179.864H1143.37V189.325H1138.53V179.864H1135.04V202.389H1138.53V192.366Z" fill="#0FC500"/>
<path d="M1159.93 199.348H1154.18V192.478H1159.7V189.437H1154.18V183.018H1159.93V179.864H1150.69V202.389H1159.93V199.348Z" fill="#0FC500"/>
<path d="M1172.32 199.348H1166.57V179.864H1163.08V202.389H1172.32V199.348Z" fill="#0FC500"/>
<path d="M1184.15 199.348H1178.4V179.864H1174.91V202.389H1184.15V199.348Z" fill="#0FC500"/>
<path d="M1191.69 202.84C1196.31 202.84 1198.23 197.772 1198.23 191.239C1198.23 184.707 1196.31 179.639 1191.69 179.639C1187.07 179.639 1185.16 184.82 1185.16 191.239C1185.16 197.772 1187.07 202.84 1191.69 202.84ZM1191.69 182.68C1193.83 182.68 1194.62 186.396 1194.62 191.239C1194.62 195.97 1193.83 199.799 1191.69 199.799C1189.55 199.799 1188.76 195.97 1188.76 191.239C1188.76 186.396 1189.55 182.68 1191.69 182.68Z" fill="#0FC500"/>
<path d="M1158.69 158.803L1162.07 138.53L1157.9 129.745L1166.46 123.664L1175.02 129.745L1170.18 137.855L1174.23 158.803" fill="black"/>
</g>
<defs>
<clipPath id="clip0_0_245">
<rect width="1239" height="223" fill="white"/>
</clipPath>
</defs>
</svg>
